<svg xmlns="http://www.w3.org/2000/svg" width="218.88" height="34.56" viewBox="0 0 164.16 25.92">
  <path fill="#1676d0" fill-rule="evenodd" d="M14.8.08c4.72.51 8.77 3.31 10.75 7.43.5 1.03.47 1.11-.56 1.61-.99.49-1.01.48-1.47-.5C19.4-.03 6.65.29 3.09 9.15c-2.82 7.03 2.55 14.6 10.37 14.58 2.48 0 2.95-.16 8.74-2.96 5-2.41 4.61-2.34 4.61-.85 0 1.15.02 1.13-1.09 1.67-7 3.46-8.13 3.93-10.16 4.25C5.46 27.4-2.68 17.86.83 8.53A13.52 13.52 0 0 1 14.8.08"/>
  <path fill="#1676d0" fill-rule="evenodd" d="M15.25 3.65a9.85 9.85 0 0 1 7 5.23c.58 1.16.55 1.29-.42 1.78-.85.43-1.35.4-1.35-.06 0-.16-.69-1.4-1.01-1.84C15.92 4 8.19 5.16 6.3 10.75c-1.84 5.44 3.28 10.7 9 9.27.85-.22.74-.16 7.02-3.2a85.2 85.2 0 0 1 4.08-1.91c.35-.06.5.52.4 1.58-.05.7-.1.75-1.47 1.4l-4.5 2.18c-4.74 2.28-5.2 2.43-7.47 2.43-6.87-.02-11.56-6.66-9.11-12.9a9.93 9.93 0 0 1 10.99-5.95"/>
  <path fill="#1676d0" fill-rule="evenodd" d="M15 7.2a6.16 6.16 0 0 1 4.2 3.68c.3.78.2.96-.75 1.42-.94.45-1.11.42-1.3-.24a3.88 3.88 0 0 0-6.5-1.63c-2.45 2.42-.48 6.56 3.01 6.31.9-.06.52.1 9.12-4.06a77.1 77.1 0 0 1 3.66-1.7c.32 0 .37.16.37 1.14 0 1.19.13 1.04-1.8 2a382.97 382.97 0 0 1-9.46 4.52c-3.91 1.37-8.07-1.26-8.32-5.26C7 9.29 10.95 6.15 15.02 7.2m26.73 11.17c-1.3 0-2.5-.3-3.55-.87a6.42 6.42 0 0 1-2.48-2.4 6.67 6.67 0 0 1-.9-3.45c0-1.28.3-2.43.9-3.45a6.4 6.4 0 0 1 2.5-2.4 7.29 7.29 0 0 1 3.55-.87c1.03 0 1.97.17 2.81.51a5.9 5.9 0 0 1 2.18 1.53l-1.22 1.19a4.88 4.88 0 0 0-3.7-1.56c-.97 0-1.85.22-2.64.66a4.76 4.76 0 0 0-1.84 1.8 5.07 5.07 0 0 0-.67 2.59c0 .95.22 1.8.67 2.58a4.76 4.76 0 0 0 1.84 1.81c.8.44 1.67.66 2.65.66a4.9 4.9 0 0 0 3.69-1.58l1.22 1.18a5.83 5.83 0 0 1-2.18 1.54c-.86.35-1.8.53-2.83.53ZM49.17 4.3h1.8v13.93h-1.8V4.3Zm8.85 3.89c1.37 0 2.43.33 3.16 1 .73.68 1.1 1.7 1.1 3.03v6h-1.71v-1.3c-.3.46-.73.81-1.29 1.05-.55.25-1.21.37-1.97.37-1.12 0-2-.27-2.68-.8a2.6 2.6 0 0 1-1-2.13c0-.87.32-1.58.96-2.11.63-.53 1.65-.8 3.03-.8h2.85v-.35c0-.78-.22-1.37-.67-1.79-.45-.41-1.11-.62-1.99-.62-.59 0-1.16.1-1.72.3a4.44 4.44 0 0 0-1.43.77l-.75-1.35a5.44 5.44 0 0 1 1.84-.95 7.68 7.68 0 0 1 2.27-.32Zm-.42 8.76c.7 0 1.29-.15 1.79-.46.5-.3.86-.74 1.08-1.3v-1.4H57.7c-1.53 0-2.29.52-2.29 1.55 0 .5.2.9.58 1.18.39.29.93.43 1.62.43Zm9.74-7a3.07 3.07 0 0 1 1.38-1.32c.62-.3 1.36-.45 2.23-.45v1.75a3.51 3.51 0 0 0-.4-.02c-.98 0-1.75.3-2.3.87-.56.59-.84 1.41-.84 2.5v4.95h-1.8V8.28h1.73v1.67Zm5.83-1.67h1.8v9.95h-1.8V8.28Zm.9-1.92a1.2 1.2 0 0 1-.88-.33 1.1 1.1 0 0 1-.34-.83 1.15 1.15 0 0 1 1.22-1.18c.35 0 .64.1.87.33.23.21.35.49.35.81 0 .34-.12.62-.35.86a1.18 1.18 0 0 1-.87.34Zm7.96-.7c-1.07 0-1.6.6-1.6 1.75v.87h2.88v1.48h-2.85v8.47h-1.8V9.76h-1.69V8.28h1.69V7.4c0-1 .29-1.77.86-2.35a3.27 3.27 0 0 1 2.42-.86c.4 0 .78.05 1.13.15.35.1.65.24.9.43l-.55 1.37a2.24 2.24 0 0 0-1.39-.47ZM94 8.29l-4.82 10.94a4.93 4.93 0 0 1-1.5 2.14 3.4 3.4 0 0 1-2.05.62c-.48 0-.96-.07-1.41-.23a2.9 2.9 0 0 1-1.14-.69l.77-1.35c.52.49 1.1.73 1.78.73.44 0 .8-.11 1.1-.34.3-.24.56-.63.8-1.2l.32-.7-4.4-9.92h1.88l3.47 7.96 3.43-7.96H94Zm12.86 10.1a7.3 7.3 0 0 1-3.56-.88 6.42 6.42 0 0 1-2.48-2.4 6.67 6.67 0 0 1-.9-3.44c0-1.28.3-2.43.9-3.45a6.4 6.4 0 0 1 2.5-2.4 7.29 7.29 0 0 1 3.56-.87c1.02 0 1.96.17 2.8.51.86.35 1.58.86 2.18 1.53l-1.22 1.19a4.88 4.88 0 0 0-3.69-1.56c-.97 0-1.85.22-2.64.65a4.76 4.76 0 0 0-1.85 1.82 5.07 5.07 0 0 0-.66 2.58c0 .95.22 1.8.66 2.58a4.76 4.76 0 0 0 1.85 1.81c.79.44 1.67.66 2.64.66a4.9 4.9 0 0 0 3.7-1.58l1.21 1.18a5.83 5.83 0 0 1-2.18 1.54 7.4 7.4 0 0 1-2.82.53Zm10.91-10.2c1.37 0 2.43.34 3.16 1.02.73.67 1.1 1.68 1.1 3.02v6h-1.71v-1.3c-.3.46-.73.81-1.28 1.05-.56.25-1.22.37-1.98.37-1.12 0-2-.27-2.67-.8a2.6 2.6 0 0 1-1-2.13c0-.88.31-1.58.95-2.11s1.65-.8 3.04-.8h2.85v-.36c0-.77-.23-1.37-.68-1.78-.45-.41-1.11-.62-1.99-.62-.58 0-1.16.1-1.72.3a4.44 4.44 0 0 0-1.43.77l-.75-1.35a5.44 5.44 0 0 1 1.84-.95 7.68 7.68 0 0 1 2.27-.33Zm-.41 8.77c.68 0 1.28-.15 1.78-.46.5-.3.86-.74 1.09-1.3v-1.4h-2.78c-1.52 0-2.29.52-2.29 1.55 0 .5.2.9.58 1.18.4.29.93.43 1.62.43Zm13.27-8.77c.96 0 1.83.22 2.59.64a4.59 4.59 0 0 1 1.79 1.79c.43.76.64 1.64.64 2.64 0 1-.21 1.89-.64 2.66a4.57 4.57 0 0 1-1.8 1.8c-.75.42-1.62.63-2.58.63a4.6 4.6 0 0 1-1.96-.41 4.08 4.08 0 0 1-1.5-1.2v5.14h-1.8V8.28h1.72v1.58c.4-.55.9-.97 1.52-1.25a4.79 4.79 0 0 1 2.02-.42Zm-.15 8.58c.64 0 1.21-.14 1.72-.44a3.18 3.18 0 0 0 1.2-1.24c.29-.53.44-1.14.44-1.83 0-.69-.15-1.3-.44-1.83a3.11 3.11 0 0 0-1.2-1.23 3.4 3.4 0 0 0-1.72-.43 3.4 3.4 0 0 0-1.7.44 3.2 3.2 0 0 0-1.2 1.23 3.71 3.71 0 0 0-.44 1.82c0 .7.15 1.3.43 1.83.3.54.7.95 1.2 1.24a3.37 3.37 0 0 0 1.71.44Zm7.67-8.48h1.8v9.95h-1.8V8.28Zm.9-1.92a1.2 1.2 0 0 1-.87-.33 1.11 1.11 0 0 1-.35-.83 1.18 1.18 0 0 1 1.22-1.18c.35 0 .64.1.87.33.23.21.35.49.35.81 0 .34-.12.62-.35.86a1.18 1.18 0 0 1-.87.34Zm9.92 11.29a2.68 2.68 0 0 1-.98.51 4.07 4.07 0 0 1-1.2.18c-1 0-1.77-.27-2.32-.8a3.12 3.12 0 0 1-.83-2.32V9.76h-1.68V8.28h1.68V6.1h1.8v2.18h2.85v1.48h-2.85v5.39c0 .54.14.95.4 1.24.27.28.66.43 1.16.43.55 0 1.02-.16 1.4-.47l.57 1.3Zm5.79-9.47c1.38 0 2.43.34 3.16 1.02.73.67 1.1 1.68 1.1 3.02v6h-1.71v-1.3c-.3.46-.73.81-1.28 1.05-.56.25-1.22.37-1.98.37-1.11 0-2-.27-2.67-.8a2.6 2.6 0 0 1-1-2.13c0-.87.31-1.58.95-2.11.64-.53 1.65-.8 3.04-.8h2.85v-.35c0-.78-.23-1.37-.68-1.79-.45-.41-1.11-.62-1.99-.62-.58 0-1.16.1-1.72.3a4.44 4.44 0 0 0-1.43.77l-.75-1.35a5.45 5.45 0 0 1 1.84-.95 7.68 7.68 0 0 1 2.27-.33Zm-.41 8.77a3.3 3.3 0 0 0 1.78-.46c.5-.3.86-.74 1.09-1.3v-1.4h-2.78c-1.52 0-2.29.52-2.29 1.55 0 .5.2.9.58 1.18.4.29.93.43 1.62.43Zm8-12.65h1.8v13.93h-1.8V4.3Z"/>
</svg>
