<svg xmlns="http://www.w3.org/2000/svg" xmlns:xlink="http://www.w3.org/1999/xlink" width="830" height="150" fill="none">
  <defs>
    <path id="a" fill="#E6C287" d="M52 7c4-4 10-7 17-7l4 1-7 1c-4 0-8 3-11 5l1-1h-2l-3 3-8 12c2-5 5-10 9-14Z"/>
    <path id="b" fill="#E6C287" d="M77 1c3 0 6 2 7 4l-1 2c1 2-1 3-2 4l-2 3h-1l-6-4-4 1h-6 1l-1-1c-2 1-5 1-7 3l-2 1 3-2-7 5h1l-4 4v-2l6-8v1l6-4c3-1 5-2 8-1l-4 2-6 3 5-3h12l4 2-2-4c2 0 3 2 4 3-1-3-3-4-5-4l-1-2 5 2 1-1 2 1c2-3-3-2-4-5Z"/>
    <path id="c" fill="#E6C287" d="M84 7c5 0 7 4 9 7 3 6 6 13 6 20l-2 1h-1l1-1-2-1v-1l-2-13-1-2 1 10a122 122 0 0 0 0 1v18-3l-1-9h-1v-4l-2-9-1-1c-1 1 0 2 1 4l1 6h-1v1h1v4h-1l-1-1v5l-5-13-3-7c-1 2 0 4 1 6l2 6c-3-4-4-9-4-15h1l2 6 5 11c1-4-1-9-2-13l-3-6c-1-1-1-3 1-3 1-1 3 1 4 1l-2-3-1-2ZM21 69l2-1-3 2v3L10 84l-2 1c3-6 9-11 13-17v1Z"/>
    <path id="d" fill="#E6C287" d="M21 70h1l-1 1v-1Zm52 14 3-3v1l-7 9c0-3 3-5 4-7ZM48 97v-7 12l-1-1 2 12-1-2-1-11 1-3Zm-4 38 3-8c0 5-2 10-4 14h-1v1-2l-1-1-1 2c-2 4-5 6-9 9 0 0-2-1-1-2l1-2-7 3c-2 0-2-1-2-3l4-5-3 3h-3c-1 1-2 0-2-1l2-3 2-1-1-1h-1l1-1h-1 2l1-1v-1h-1v-2l1 1 1-1h-1v-2l2 1v-1l1 2-1 1 1 1c0-1 1-3 2-2h2v2c1-1 1-3 3-3l-3 4h2l-1 1h1l-1 3 2-5h2v2h1l1-1-1 5 3-6c1-1 4 0 2 1v1h1l1-1 1-1Z"/>
    <path id="e" fill="#DBA851" d="M54 6h2l-1 1-3 4-6 8v2l4-4 1-1-9 15h-2l1-2 2-8 8-12 3-3Zm1 7c2-2 5-2 7-3l1 1h-1l-6 4-5 4 4-4v-2Zm37 4 1 2 2 13h-1v3l1 1-2 1h1l-1 1a107 107 0 0 0 0-11l-1-10Zm-12 2 3 7-2-1c-1-2-2-4-1-6Zm-30 9h1l2 1h2v1l1-1v3l-2-2h-1l1 1-3-1-4 1h-2l1-1v1l2-1-2 1 4-2v-1Zm20 6 2 1c1 1 3 1 3 3l-2-1-1-2h-3l1-1Zm-32 9a301 301 0 0 1 2-1l-1 5v-4l-2 3-1 7c0 8 0 15 2 23l3 13 4 21-1-1-1-1v1l1 2-2 1v3l-2-21-2-3-1 3c1 8 0 16-1 24l-1-2h-3l1 1h-1v-1l1-1-1-1 2-1h-2l-1-1v1h-2v1h2c-2 0-1 1 0 1l-3 1-1-2h1v-1h-1l1-1v-1h-3l2-2h-1v-2l1 1v-2l1-1c-1-2-2-1-3 0l2-2c-1-1-3-3-4-1h-1l1-1h-2v-1l1 1a6747 6747 0 0 1-1-2l-1-2 3-3-1-1h1l1 1v-2l-1-1-1 2v-3l1 1-1-2v-1h3-1 2l-2-1-1 1-1-1 1-1-1-1 3 1-1-1h-1l1-1v-5l7-15v-2l4-13-2 1 2-6h1l2-2v1Zm57 0 2 1h2v-1l1 1 1 1 2 9 2 14 3 21c2 3 2 6 3 10-2 1 0 4-1 6v-1 3h-1l1 1h-1a79 79 0 0 0-1 0l-2 1-2 1h-2 1l1 2-1 1h-1l1 1v3h-1c0 1 2 2 1 3h-1l1-1-3-1c1 1 0 1-1 1l1-1a107 107 0 0 0-3-1h-1l1-1c-2 1-2 3-4 2h1l-1-2 1-2-4-1h1l2-1v-1l-2 1v-1h-1v-5l-1 4h-1v1l1-17 2-16 1-7c-3 3-3 7-4 11l-2 13-1 18v-3l-1 1V94l2-12 1-4 2-5 1-5-1-1 1-1h-1l1-1v1l1-1-1-1h2l-1 1h1v-1l1-1-3 1v-1h2l-2-2 1-1a171 171 0 0 0-1 0h1v-2h2v-1h2-2 3l2 1v-1l-2-1h3l-1-1h-1 1-1v-4l1-1-2-1 2-1h2v-2l-2 2v-3c-2 0-3 0-3-2ZM27 61l6-12v1l-1 3-1 1-4 10-5 12v-1l-2 3h-1v1-1h1c-1-2 1-2 1-4 1-5 5-8 6-13Z"/>
    <path id="f" fill="#DBA851" d="M38 56v-5l3 14 2 6 1 14 2 8 1 7 1 11 1 2v1l-2 12v-13l-4-20-4-21-1-16Zm0 46h1v17h-1c0-2 2-3 1-4v-1l-2 1c1-4 2-9 1-13Zm35 3h3l1 6h1l-1 3v3h-1v2l1-1v3c0-1-1-3-2-2l1 1v1h-1v2h-2l-1 1a124 124 0 0 1 2 0l-4 1 1-1c-2 0-1 1-1 1h-1l1-3v-2l1-2 1-4 1-9Zm16 6 1 1v2h-1v-3Zm-3 25c3-5 2-12 3-18h1v1l2-1-1 1 2 1-2 1h8v1l2 1v-1l3 2-3 1c1 0 3 0 2 1l1 1h-1l1 1h-2c2 0 2 3 1 4l1 1h-3 2c-1 1-3 2-4 1v1h-3 1l-1 1h1v-1l1 1-1 1h1-1l-2 2c-1 1-3 0-4-2h-1v-1h-1v-1l-1 1 1 1-1-1-1 1a405 405 0 0 0-1-1Zm-47-1-3 6 1-5h2v-1Z"/>
    <path id="g" fill="#FED4C8" d="m68 11 4-1 6 4h1l-1 1v2l1-1c0 6 1 11 4 15l2 10-5-1h1l-6-6c-3-2-6-3-7-7-1-1 1-2 2-2 2 0 3-2 4-4l1-5-6-3h-7l-5 2 3 1c1 2-1 3-2 4v6l-5 1-7 2 5-10 5-4 6-4h6ZM56 38l1-1-5 12v-4l1-1c2-1 2-4 3-6Zm-13 4h3l4 3h-4 5c0 2 0 3-2 4l-2 1c-4 1-4 5-3 8l1 4c1-3-1-7 1-10v2h2c-2 0-3 1-2 2l2 8-1 2c-2 0-3-2-3-3-1-4-3-8-2-12v-7l4 1c-1-1-3-1-3-3Zm19-1v1c2 3 6 4 9 4v-1h4c-2 2-5 2-8 2-2-1-3-3-5-3v-3Zm21 2h2l-2 1c-2 1-4 3-7 3l2-3c1 1 3-1 5-1Zm7 13v3l-4 3-4-2 4-4 1 1 3-1ZM74 79l3-2-4 5c-3 3-7 7-7 13v2c1 2 2 5 4 6l3 2-1 9-1-2c-2 0-4 3-5 5l-2-2c1-4-1-7-2-11 2-1 2-4 2-6 0-4-2-9-1-13l11-6ZM48 90v2l3 9 2 1c0 5 4 8 4 13l-4-2-2 1-1-2-1 2v-1l-2-12 1 1V90Zm6 1c2 1 2 3 3 5l3 3v1h-2l2-1h-4c-1-2-3-5-2-8Zm-13 48 1 1v2-1h1l-3 4h-1c1 1 0 1-1 2l2-6 1-2Z"/>
    <path id="h" fill="#873903" d="m53 14 2-1v2l-4 4-5 10v1l-1 1h-3l9-15 2-2Zm31 20h1v2h1l1 1-1 1h1l2 5 1 4v6h-2v-2l-4-17Zm-44 6 1 2v2c-1 6 0 12 2 18h-1c1 5 3 10 6 14l-1 2-1 2-3-9-2-6-3-14 1-4 1-5v-2Zm42 22v-1l1 1c1 2 4 2 6 0l-1 4-2 1-8 23v12l1 6-1 3h-1l-1-6h-2l-4-3-4-5v-3l1 1h1v-2h1v1h2v3h-2v1l-1 1h1v-1 1h1l2 1v1l1 1v-2l1 1c1 0 0-2-1-1l1-1h-1l1-1-1-1c2 2 3-1 2-2l1-4h-1l2-8v-6l1-6 1-2 2-4 1-3Zm5 31a135 135 0 0 0 2 1l-1 17-1 1-2 1 1-18h1v-2Z"/>
    <path id="i" fill="#E0B46B" d="M89 24c-1-2-2-3-1-4l1 1 2 9v2-2 2l-1 4 1 7v7l-1-2v-1l-1-9-1-3v-1l1 1h1v-4h-1v-1h1l-1-6Z"/>
    <path id="j" fill="#E0B46B" d="M95 32v1l2 1-1 1h1l2-1 2 11-1-1-1-1v1h-2l-2-1c0 2 1 2 3 2v3l2-2v2h-2l-2 1 2 1-1 1v4h1-1 1l1 1h-3l2 1v1l-2-1h-3 2-2v1h-2v2h-1 2v1l-1-1-1 1 2 2h-2v1l3-1-1 1v1h-1l1-1h-2l1 1-1 1v-1l-1 1h1l-1 1 1 1-3 6v1l-3 9v4l-1 3-1 19v8l-1 8-1 3c2-1 2-3 3-5l1-13 1-1v17l2-6v-9l1-1v-1h1v3c-2 7-2 15-5 22l-5 9 7-8a282 282 0 0 1 2 0l1-1a157 157 0 0 0 0 1h1v1h-1c-3 4-7 8-11 10-2 1-5 2-6-1l2-2 4-8h-1l-2 2c-2 0-3-1-2-2 1-4 3-7 3-11v-4l-3 6-3 2c-1 0-3-1-2-2l2-5-1 3h1s-1-1 1-1l-1 1 4-1h-2l1-1h2v-2h1v-1l-1-1c1-1 2 1 2 2v-3l-1 1v-2h1v-3l1-3 1-3-1-6v-7l5-15 5-14 1-4 1-3v-3l1-4 1 1c2-1 2-4 3-6V32Zm-56 2 1 6v2a676 676 0 0 1-2 1v-1l-2 2h-1l4-10ZM21 68l6-7c-1 5-5 8-6 13 0 2-2 2-1 4h-1 1l2-3v6l-1-1-1 1v-2c-1 1-1 3-3 2l3-6-5 6-3 2 2-3 6-7v-3l3-2-2 1v-1Zm0 2v1l1-1h-1Zm1 12 2-3v5l-1 1h1l1 1-3-1 1 1-1 1 1 1 1-1 2 1h-2 1-3v1l1 2-1-1v3l1-2 1 1v2l-1-1h-1l1 1-3 3 1 2v1l1-1v2l-1-1a2704 2704 0 0 1 1 2h1c1-2 3 0 4 1v1-1l-2 2c1-1 2-2 3 0l-1 1v2l-1-1v2h1l-2 2h3v1l-1 1h1v1h-1l1 2 3-1c-1 0-2-1 0-1h-2v-1h2v-1l1 1h2l-2 1 1 1-1 1v1h1l-1-1h3l1 2-4 19h-1l1-1h-2l3-4c-2 0-2 2-3 3v-2h-2c-1-1-2 1-2 2l-1-1 1-1-1-2v1l-2-1v2h1l-1 1-1-1v2h1v1l-1 1h-2 1l-1 1h1l1 1-2 1c-2-1-1-2-1-3l-4-1-4-9c-1-6 1-12 3-17l4-10 1-8 3-10Zm52 5 3-4c-2 5-5 9-5 14v3l-1-5v-1c1-2 1-5 3-7Z"/>
    <path id="k" fill="#E0B46B" d="M110 104v14l1 1v1l-3 11c-2 5-5 9-8 12-2 1-3 0-4-2l2-3-3 1 2-2h1-1l1-1a403 403 0 0 1-1 0h-1l1-1h-1 3v-1c1 1 3 0 4-1h-2 3l-1-1c1-1 1-4-1-4h2l-1-1h1l-1-1c1-1-1-1-2-1l3-1-3-2v1l-2-1v-1h-8l2-1-2-1 1-1-2 1v-1h-1l1-4v-3h1v1l2-1v1l-2 1h-1l4 1-1 2 1 2h-1c2 1 2-1 4-2l-1 1h1l2 1h1l-1 1c1 0 2 0 1-1l3 1-1 1h1c1-1-1-2-1-3h1v-3l-1-1h1l1-1-1-2h-1 2l2-1 2-1h2l-1-1h1v-3Zm-67 4 1 1 1 1v20l-1 5-1 1-1 1h-1v-1c2-1-1-2-2-1 3-6 2-14 3-20v-3l2-1-1-2v-1Zm-6 7 2-1v1c1 1-1 2-1 4h1v-1c0 6 1 12-1 18h-1l-1 1h-1v-2h-2l4-20Z"/>
    <path id="l" fill="#A7652A" d="m81 25 2 1 5 13v-4l1 3 1 9-1-4-2-5h-1l1-1-1-1h-1v-2h-1l4 17-2-8-1-2-2-10-2-6Z"/>
    <path id="m" fill="#A7652A" d="M91 30v4h1l1 9v3-8l1-1h-1l2-1-1-1v-3h1v15c-1 2-1 5-3 6l-1-1-1 4v-1h-1l1-2v-5l1 2v-7l-1-7 1-4v-2Zm-41 2c2-1 4 0 5 2l-4-2h-1Zm-9 3c0-2 3-2 4-2l-2 6h-1v3c-1-2-2-5-1-7Zm22 0 2-2h3v1h2l-1 1-6 1v-1ZM37 46l2-3v4l-1 4v5l1 16 4 21 4 20v14l-3 8 1-5v-20l-4-21-3-13a79 79 0 0 1-1-30Zm-4 4 2-1-4 13h-1a111 111 0 0 1-8 18v-4l5-12 4-10 1-1 1-3Zm57 18-1 5-2 5-1 4-2 12v17l-1 13c-1 2-1 4-3 5l1-3 1-8v-8a96 96 0 0 1 2-22v-4l3-9v-1l3-6Z"/>
    <path id="n" fill="#A7652A" d="M88 82c1-4 1-8 4-11l-1 7-2 16v-1h-2v2h-1l2-13ZM43 71l3 9 1-2 1 11-1-1v1h-1v4l-2-8-1-14Zm34 6v6l-3 4c-2 2-2 5-3 7h-2v-1h-1v2h-1l-1-1v1c0-6 4-10 7-13l4-3v-2Zm-4 7c-1 2-4 4-4 7l7-9v-1l-3 3Zm-1 13c0-5 3-9 5-14l-2 8h1l-1 4c1 1 0 4-2 2l1 1-1 1h1l-1 1c1-1 2 1 1 1l-1-1v2l-1-1v-4Zm-34-6 2 3 2 21c-1 6 0 14-3 20v1h-1c2-6 1-12 1-18v-16h-1a134 134 0 0 1-5 33l-2 5 1-3 4-19c1-8 2-16 1-24l1-3Zm33 6v-2l1 5-2-1h-1v-1 1h-1l1-1v-1h2Zm19 9v6l-1-1v-1l1-4Zm-3 6v9l-2 6v-14l2-1Z"/>
    <path id="o" fill="#A7652A" d="M89 113v1h1l-1 4c-1 6 0 13-3 18l-7 8 5-9c3-7 3-15 5-22Z"/>
    <path id="p" fill="#F899B0" d="M53 30h1l2 2 1 3h2-4l-4-3 4 2c-1-2-3-3-5-2a137 137 0 0 1 1-2l3 1-1-1Zm10 6 6-1h3l1 2-3-1c-3-1-5 1-8 1v-1h1v-1 1Zm-16 0 3 1 1 1-4-2Zm14 5 4-4v1l-2 1 4-2v1l-3 2h2v1h-1c0 2 2 3 3 4l-5-4-1 1v-1 3l-1-3Zm-8-3h1v1c-2 2-5 0-7 1l7 1-2 2-7-2v-1c3-2 6 0 8-2Zm5 9 2-8v4c0 2 1 4 3 5-2 1-4 0-5-1Zm15-6c2-1 2 2 3 2l-1-2h1v3l-1-1-2-2Z"/>
    <path id="q" fill="#F899B0" d="M66 41h2l3 2h-1l-4-2Zm19 2h1l2 8c-2 4-5 7-9 9l-5 3h-2v-3l-4-4 2 6-1-1-2 6-3 3 5-10-2-4-4-6 1-1v-1h4l5 1-7 1c3 2 7 1 9-1l1-2c3 0 5-2 7-3l2-1Zm-28 6c2-1 3 1 2 2-2 1-5 2-6 1v-2c1 1 3 0 4-1Zm-13 9c-1-3-1-7 3-8-2 2-3 5-3 8Z"/>
    <path id="r" fill="#F899B0" d="m52 52 3 2h1l4-1 2 1c-2 1-5 0-7 2h2l-5-2v-2Zm-6 4c-1-1 0-2 2-2-1 1-2 1-1 2l1 3v1l1 1 2 1 11 2 3-1 2-3 1 1-4 4-1 3c-4 2-9 2-12-1l-3-3-2-8Z"/>
    <path id="s" fill="#F899B0" d="m49 55 4 3c4 2 8 0 12 2v2c0-1-1-2-2-1h-2c0-2-1-1-2-1h-3l-1-1-1 1c0-1-1-2-2-1l-2-1v-1h-1l-1-1 1-1Zm0 14 3 2h8c1-1 3-2 4 0 1 1-1 3-2 4-4 3-10 2-13-3 0-1-2-2 0-3Z"/>
    <path id="t" fill="#F899B0" d="M61 81c6 1 11-3 16-5v1l-3 2-11 6c-1 4 1 9 1 13 0 2 0 5-2 6-4 1-4-3-6-5h4l-2 1h2v-1c-1-5-2-10-1-15h-5l-1-2-3-1 3 16v5l-2-1-3-9v-2l1-13c2 3 7 3 11 3l1 1Z"/>
    <path id="u" fill="#674F2F" d="M42 31h5l3 1h1v2h-1l-2-1h-3c-1 0-4 0-4 2-1 2 0 5 1 7h-1l-1-2-1-6 1-2-1-1a18 18 0 0 1 3 0Zm14 23 5-1h-1l-4 1Z"/>
    <path id="v" fill="#914B71" d="M39 34v-3l1 1-1 2Zm8-1h1l2 1v1c-2-1-3 1-5 1v-1l1 1-1-1 2-2Zm-1 2 2-1-2 1Zm18 5 3-2 1 1c-2 0-1 0 0 0l-2 1h-2ZM47 50l2-1-3 3c-2 3 0 7-1 10l-1-4c0-3 1-6 3-8Zm31 19 4-8 1 1-1-1v1l-1 3-2 4h-1Zm-19 9c7-1 13-3 19-7l-1 6v-1c-5 2-10 6-16 5l-1-1c-4 0-9 0-11-3l-1-1 2 1 6 1h3Z"/>
    <path id="w" fill="#5F5E5E" d="M51 34v-2l4 3h4l3 1v1h-6v1c-1 2-1 5-3 6h-1v-1l2-2a19 19 0 0 0 0-3v-2l-3-2Zm19 2 3 1 2 1 4 1-2 1c1 3-1 5-2 7l1-3v-3c0-2-2-3-4-3l-5-1-4 2 2-1v-1l5-1Z"/>
    <path id="x" fill="#5F5E5E" d="M68 39h1c0 2 0 3 2 2v2l-3-2v-2Zm-7 4v-2l1 3v1l2 3v1l-1-1c-2-1-3-3-3-5h1Zm-20-1h2c0 2 2 2 3 3l-4-1-1-1v1-2ZM9 91c1-2 3 0 3 2l-1 10c0 1-2 2-2 0l1-9c-3 6-2 13-2 19 0 1-1 3-3 3l-2-3c-1-5-2-10-1-15l1-2 1 1 1 14c0-7 0-15 4-20Zm102 2h2c5 4 7 9 8 14 1 3 2 6 1 10l-1-5c-2-6-3-12-8-17l-2-2Zm1 21h1v2l1 1v1h-1l1 1-1 1h-1l-1-1-1-1h1l1-4Zm-44 5 3-1-1 2-7 2-7-1-6-2c6 1 12 2 18 0Z"/>
    <path id="y" fill="#0A0808" d="m51 34 3 2v1h-3 2-2v-1l-1-2h1Zm11 3c3 0 5-2 8-1l-5 1-4 4v2h-1v-6h2Zm6 2 1-1 1 1 2 1 1 1 2 2v1l-1-1-1-1h-2v-1c-2 1-2 0-2-2h-1c-1 0-2 0 0 0Zm9 1 2-1 1 1 5 1 1 2h-3l-4-1-1 2-2 3-1 2-1-1 1-1c1-2 3-4 2-7Z"/>
    <path id="z" fill="#3F3B36" d="M50 35v-1l1 2h-1v1l1-1v1h2-2 2l-2 1-1-1v-2Zm38 18h2l-1 2a163 163 0 0 1 1 1l-3 1-1-1 2-3Zm22 52c1-2-1-5 1-6l1 1 1 10 1-4 3 2v11l-2 1h-3 1l1-1-1-1h1v-1l-1-1v-2h-1l-1 4h-1v-13Zm-61 9 1-2 1 2 2-1 4 2v1l7-1 2 2c1-2 3-5 5-5l1 2c-3 0-3 2-5 4h-9c-2 2-5 0-8-1l-1-3Z"/>
    <path id="A" fill="#D16C7B" d="M53 37h1v1h-3l2-1Zm19 1c2 0 4 1 4 3h-1l1 2c-1 0-1-3-3-2l-1-1 1-1-1-1Zm-25 2c2-1 5 1 7-1v2l-7-1Zm16 1 5 4h3v1c-3 0-7-1-9-4l1-1Zm-1 8h1v1l4 6 2 4-5-8-2 2-2-1h1c2-1 2-3 1-4Zm26 2v1c-2 3-5 6-9 8 4-2 7-5 9-9Zm-40 3h4l5 2 11 4v1l-1-1-2 3v-3c-4-2-8 0-12-2l-4-3-1 1v3l-1-3c-1-1 0-1 1-2Z"/>
    <path id="B" fill="#D16C7B" d="m68 56 4 4v3l-2 2v-3l-2-6Zm-20 4h3c2 2 4 2 6 2l5 1-13-2-1-1Zm-1 18 1-2 1 1-1 13v7l-1 3-1-7v-4h1v-1l1 1-1-11Zm26 4 4-5v2l-4 3Zm-7 15 4 5 4 3h-1l-3-2c-2-1-3-4-4-6Z"/>
    <path id="C" fill="#C584A1" d="M69 38v-1l1 2-1-1Zm10 22c4-2 7-5 9-8v1l-2 3-4 4v1l-4 8c-5 3-10 6-16 7l6-6h-2l4-6v2l4-3 5-3ZM50 76l10 1-4 1-6-1v-1ZM0 94c0-3 2-5 4-5l-2 4-2 1Z"/>
    <path id="D" fill="#1676D0" d="M71 42h2l1 1h-4 1v-1Zm-21 3 2-1h1l-1 1h-6 4Zm23 4 1-1 1 1c-2 2-6 3-9 1l7-1Zm-18 5c2-1 4-3 6-1l-5 1h-1Zm35 5-1 3c-2 2-5 2-6 0l-1-1v-1l4 2 4-3Zm-60 3h1v2l-7 15-2 3v-2l2-4 6-14Zm12 0h1c1 5 3 11 7 14v1l-2-1c-3-4-5-9-6-14Zm44 5 2-1-5 14-5 15v-5l8-23Zm-24 9c6-1 11-4 16-7h1l-1 2c-6 4-12 6-19 7h-3l4-1 2-1Z"/>
  </defs>
  <use xlink:href="#a"/>
  <use xlink:href="#b"/>
  <use xlink:href="#c"/>
  <use xlink:href="#d"/>
  <use xlink:href="#e"/>
  <use xlink:href="#f"/>
  <use xlink:href="#g"/>
  <use xlink:href="#h"/>
  <use xlink:href="#i"/>
  <use xlink:href="#j"/>
  <use xlink:href="#k"/>
  <use xlink:href="#l"/>
  <use xlink:href="#m"/>
  <use xlink:href="#n"/>
  <use xlink:href="#o"/>
  <use xlink:href="#p"/>
  <use xlink:href="#q"/>
  <use xlink:href="#r"/>
  <use xlink:href="#s"/>
  <use xlink:href="#t"/>
  <use xlink:href="#u"/>
  <use xlink:href="#v"/>
  <use xlink:href="#w"/>
  <use xlink:href="#x"/>
  <use xlink:href="#y"/>
  <use xlink:href="#z"/>
  <use xlink:href="#A"/>
  <use xlink:href="#B"/>
  <use xlink:href="#C"/>
  <use xlink:href="#D"/>
  <use xlink:href="#a"/>
  <use xlink:href="#b"/>
  <use xlink:href="#c"/>
  <use xlink:href="#d"/>
  <use xlink:href="#e"/>
  <use xlink:href="#f"/>
  <use xlink:href="#g"/>
  <use xlink:href="#h"/>
  <use xlink:href="#i"/>
  <use xlink:href="#j"/>
  <use xlink:href="#k"/>
  <use xlink:href="#l"/>
  <use xlink:href="#m"/>
  <use xlink:href="#n"/>
  <use xlink:href="#o"/>
  <use xlink:href="#p"/>
  <use xlink:href="#q"/>
  <use xlink:href="#r"/>
  <use xlink:href="#s"/>
  <use xlink:href="#t"/>
  <use xlink:href="#u"/>
  <use xlink:href="#v"/>
  <use xlink:href="#w"/>
  <use xlink:href="#x"/>
  <use xlink:href="#y"/>
  <use xlink:href="#z"/>
  <use xlink:href="#A"/>
  <use xlink:href="#B"/>
  <use xlink:href="#C"/>
  <use xlink:href="#D"/>
  <path fill="#A36D54" d="M591 3c-2-2-5-2-8-3l-5 1h-5l-2 2h-7l-6 3c2-1 4-3 6-2l-4 2 3-1v1l2-1-2 2c-2-1-3 0-4 1l-7 5c-3 3-2 8-2 12l-1 10v5l2-1h-1v-6l1-9 5-13 3-2 3-1c1-1 3-2 5-1 5 3 7 8 8 14 0 3 2 7 1 11l-2-3c0 3 3 5 2 8l1 2c1 2 1 4 3 5l3 5 2 3 4 8c1 6 2 12 0 18l-2 3-2 6v1l-1 5-1 3v4l2 15 4 7-1-11-1-12 1-4 2-7 2-13 1-4 1-3v7h1c-2 1-1 4-2 6l-1 8 2-7c2-5 3-10 3-16 1-1 0-3 2-4v-6h-1V46l2 6v9l3 1-1-1-1-2h2l-1-7-1-8-2-11-3-12-2-5-2-5-2-3c1-1 2 1 1 2h1l2 3 4 7c3 8 6 16 7 24l2 5h3l-2-1h1l-1-2 2 2a424 424 0 0 0 0-1v-1h-1 1l1-5v-5c2 0 3 1 3 3h2l-3-9h-1v2l-1-1-1 1-1 2 1 9-2-8-6-16c-3-6-6-11-11-15-2 0-4 1-3 3V6l-6-3c-1 0-2 1-1 2l4 7 2 6c-3-6-5-12-10-16-2-1-3 2-2 3-1 0-2 2-1 3 3 3 3 6 5 9l5 13-4-14c-2-3-4-5-4-9l4 3 7 14c1 4 1 8 3 11v-6l-1-8v-3c2 1 2 4 2 5 2 5 1 9 2 13l1 11v15l-1 2c-3 0-2-4-3-6v-1l-1-5-2-9-3-11 3 13-3-5-7-21-4-9c-1-3-4-4-7-5l-1-1h7c2 0 1-1 0-2 3-1 6 1 8 1l1-1-1-1c4-1 7 1 11 2Zm-35 7-2 3-4 10c0-4 1-11 6-13Z"/>
  <path fill="#A36D54" d="m567 11-3-2 1 1 2 2 2 4 2 2-4-7Zm-1 36c1-2-1-5-3-5v1c1 1 2 2 1 4v1l2-3v2Zm0 12-3 1-3 1-6-1c4 3 9 2 12-1Zm22 5v-3c-2 2-3 4-5 4h-1l-4 3 3 1c2 0 3-2 5-3l2-3v1Zm-29 12-3-2 2 7c0 4 0 9-3 13-1 3-3 6-7 7v-1 1h5c5-5 8-13 9-20-1-2-1-4-3-5Zm-14 15h-3l-2 1v11c0-4 5-6 5-10v-1l-1 1 1-2Zm17 4h-2l-1 4-1-1v2l-7 6h1c-2 0-3 3-5 4h-2c1 2 2 1 3 2h-1v1l1 3h-2l2 1 8-13 3-4v2h-1v1c-1 5-4 9-7 13l-5 7v3l-3 1h1v1-1l-3 5v-1l-1-1h1l-1-1a580 580 0 0 1 0-1l-1-3 1 1-1-3 1 9-2 5h6-2l2-2c4-3 9-6 12-11-3 3-6 6-10 7l1-3c4-3 7-7 9-12l5-16c0-1 0-2 2-2l-1-1h1v-1l-1-1Zm5 4-1-2v6c0 9-4 18-9 25l5-6c4-7 5-15 5-23Zm33 4h-2l-4 7v8l1 2 1-1h1l-2-1v-1 1l2-3c1 0 1-2 3-2l-1 1h2v-2l-1-1-1 1-1 1-1-1 2-1-1-1h3v-1h-1v-1l1-1 1 2 1-1c-2-1 1-1 2-2-2-1-4 1-5-2l1-1-1 1h-2c0-2 1-1 2-1Z"/>
  <path fill="#BA8979" d="m591 4-4-1c-1 2 2 2 1 3v1c-1-2 1-3 3-3Zm5 0h-3l2 2c5 2 8 7 10 12s4 11 4 16l1-2 1-1 1 1v-2h1l-4-13c-3-6-7-10-13-13Zm-32 32-1 1 3 2 4 1v-2h2-5l-3-2Zm-9 10h-2l2 2-2-1c-1 3-2 6 0 7a22 22 0 0 0 3 1h3l9 1h2c-2-2-4-2-6-2l-3-1h-5l-1-1c0-2 3-2 5-2l1-1-4-1v-1c-1 1-3 0-2-1Zm-6 6c-2 4-2 7-2 11l1 4c0-5 0-10 2-15h-1Z"/>
  <path fill="#BA8979" d="m549 56-1 6 1 9-1 3 1-1 3 18-1 4 3-5V80c-2-7-5-14-5-22v-2Zm23 14-8 3v1l1 1 4-2c2-1 5-1 4-3h-1Zm-25 7c-3 3-4 7-5 11l-2 4 2-1h3l-1 2 1-1 1-7 1-8Zm-4 3-4 3-6 3 2 1 7-5 1-2Zm91 15h-1v11l1 1 1-4-1-8v1-1Zm-10 18 1 5 1-3-1 1v-1l-1-2Z"/>
  <path fill="#71381A" d="M567 7c-2-1-4 0-5 1l-1 2 2-2 1 1 3 2 4 7v2l3 9 2 3c1-4-1-8-1-11-1-6-3-11-8-14Zm13 3-4-3c0 4 2 6 4 9l4 14v2l3 11 1-2-4-16 3 8 2 2v-1l1 2v-3h1-1v-4 6c-2-3-2-7-3-11l-7-14Zm-21-1-3 2-5 13-1 9v6h1-1l2-8v-4l1-1v-1h-1c-1-1 0-2 1-4 1-4 3-9 6-12Zm39 11h-1 1l-2 1 3 12 2 11 1 8 2-1-1-1v-1h3a62 62 0 0 1 1 0l-2-5c-1-8-4-16-7-24Zm15 17h-2v5l1-2v5l1 1h1l-1-1h2l-2-8Zm-47 8-2 3-1 1h1l1-1 1-1v-2Zm32 1v10h1v6c-2 1-1 3-2 4 0 6-1 11-3 16l-2 7 1-8c1-2 0-5 2-6h-1v-7l-1 3-1 4-2 13-2 7-1 4 1 12 1-9c0-1 0-4 2-3l-1 5h1c1-1 0-3 2-4l-1-1 1 1v-2l1-2 2-1-1-1 2-9 3-13V61a26 26 0 0 0 0-9l-2-6Zm-36 2h-5l4 1 1-1Zm30 10-2-1v1c1 2 0 6 3 6l1-2h-2v-4Zm-3 13-2 10 2-3h-1l1-7Zm23 7-1 2-1 9h1v4l-1 8-1 6c-1 5-2 10-5 14l4-17-1-3h1v-2l-1-1-2 7-2 9-3 4c-1 3-4 5-3 9l2-1c2 1 3-1 5-1l-1 10-1 8h1v-1c1 1 2-2 2-3 2-5 2-10 2-15l2-6v11c0 5-1 10-3 14l-1 3-2 2h1l2 1v-1l3-6 3-13v-19 2h-1l-2 5v-1h-2l2-1v-2l2-4 1-2v2c1-5 2-10 1-15h1l1-1-2-1h1l-1-4-1-5v-5Zm-50 9v-6c-1 7-4 15-9 20l-6 8v1c2-1 3-4 5-4h-1l7-6v-2l1 1 1-4h2l1 1v1h-1l1 1c-2 0-2 1-2 2l-5 16c-2 5-5 9-9 12l-1 3c4-1 7-4 10-7-3 5-8 8-12 11l-2 2h1c3 0 7-2 10-4l4-5c5-7 9-16 9-25v-9l-1 1h1v1h-2v-1h1l-2-4-1 3v-7Zm-15 5h-1l1 3h-1 1l-2-2c0 4-5 6-5 10l-1 2 1 10 2-5c1-4 4-6 6-9v-1l2-4c1-1 0-2-1-3l-1-1h-1Z"/>
  <path fill="#71381A" d="m559 100-3 4-8 13c-4 4-6 9-7 14v1l3-5v1-1h-1l3-1v-3l5-7c3-4 6-8 7-13v-1l1 1v-3Z"/>
  <path fill="#93593C" d="M591 10c1-1 0-3-1-2l2 3 2 5a92 92 0 0 1 2 5l2-1h-1 1l-4-7-2-3h-1Zm23 29c0-2-1-3-3-3v1h2l2 8 2 11-1 1 1 3 1 4v-5h1l-3-20h-2Zm-3 3v-1l-1 5h-1 1v2l-2-2 1 2h-1l2 1h-3v1a65 65 0 0 1-5 44l-4 9h2c-1 0-2-1-2 1h2l1-1-1 1c1 3 3 1 5 2-1 1-4 1-2 2l-1 1-1-2-1 1v1h1v1h-3l1 1-2 1 1 1 1-1 1-1 1 1v2h-2l1-1c-2 0-2 2-3 2l-2 3v-1 1l2 1h-1l-1 1-1-2c1 4 1 8 3 11 1 4 5 8 5 12h-3c-6-4-8-11-10-17 1 8 4 15 9 20l2 1 2 2c0 1 2 3 4 2l-2-1h-1l2-2 1-3c2-4 3-9 3-14v-11l-2 6c0 5 0 10-2 15 0 1-1 4-2 3v1h-1l1-8 1-10c-2 0-3 2-5 1l-2 1c-1-4 2-6 3-9l3-4 2-9 2-7 1 1v2h-1l1 3-4 17c3-4 4-9 5-14l1-6 1-8v-4h-1l1-9 1-2V59l-1-17Zm-45 15h-5l-1 1 2 1h1l3-2Z"/>
  <path fill="#93593C" d="M601 80c2-7 3-14 2-21h-2l1 2 1 1-3-1v11l-3 13-2 9c3-4 5-9 6-14Zm-50-13c-1-3 0-6-2-9 0 8 3 15 5 22v10l-3 5 1-4-3-18-1 1-1 3-1 8-1 7v1l2 2h-1 1l-1-3h2l1 1c1 1 2 2 1 3l-2 4v1c4-1 6-4 7-7 3-4 3-9 3-13l-2-7 3 2-1-1-3-3-2-1-2-4Zm63 27h-1c1 5 0 10-1 15v20l-3 13-3 6c4-3 7-7 8-12 2-7 4-14 4-21-1-2 1-4 1-5l-3 2-2-18Zm-61 7h-5c-2 3-5 5-6 9l-2 5 1 1-2 7 1 3-1-1 1 3 1 1h-1l1 1h-1l1 1c1-5 3-10 7-14l-2-1h2l-1-3v-1h1c-1-1-2 0-3-2h2v-1l6-8Z"/>
  <path fill="#200E06" d="m561 10 1-2-3 1c-3 3-5 8-6 12-1 2-2 3-1 4h1l5-11 3-4Zm26 23-3-8 4 16 3 9 1 8v4h2V47l-2-16-1-4v6l1 13-5-13Zm-34-7-1 1h1l4 2-1-2-3-1Zm17 1h-3l-4 1v2l2-1c2-2 5-1 7 0v-1l-2-1Zm-14 4-3-1-1 1-2 8h1l1-6 1 1v1-2h1v1l1-1 2 1v1l-1-3-3-1 2 1 1-1Zm14 2-3-2c-1 0-3 1-2 3v1l2 1 1-2 3 1h1l-4-3 3 2-1-1Zm-2-1v1h-2l2-1Zm-1 2v1l-1-1h1Zm45 7v-1l-1 2 1 17v21l2 7 1-1v-7l-2-21-1-13v-4Zm-23 19-4-8-1 1 2 4c2 3-2 5-4 8h1c2 0 3-2 5-4v3l1 5v2l-1 7h1c2-6 1-12 0-18Zm-38-4 2 10 1-1v-4l-2-5h-1Zm68 26c0-5-1-11-3-16-1 2 1 5 1 8l1 18c1 6-1 11-1 17l1-2a74 74 0 0 0 2-19l-1-6Zm-60-9c-3 0-4-2-5-4l1 3 3 3h5l3 14-1-9-1-6v-1h-5Z"/>
  <path fill="#E08E2E" d="m563 8-2 2-3 4h2l1-1 4-3-1-1-1-1Zm-6 21-4-2c2 1 4 3 4 5l-1-1-1 1h1l1 3v-1l-1 1-1 1 2 1c2-3 2-6 0-8Zm20 27c-2 0-2 2-3 3 0 1-2 3-1 5 1 0 3 1 4-1l2-5c0-1-1-3-2-2Zm11 7-2 3-1 3 3-3 1 3-1-5v-1Z"/>
  <path fill="#EFB081" d="m567 12-2-2-4 3 6-1Zm3 8c0 2-3 2-3 4s2 2 3 3l2 1-2-8Zm-17 7v3l3 1 1 1c0-2-2-4-4-5Zm12 2-2 1-2 4 2 3 1-1 1-1v-1c-1-2 1-3 2-3l-2-2Zm11 8-3-6-3 2 1 1-3-2 4 3 1 1-1 1 4 1-1-1h1Zm-20-2h-4c0 2 2 2 3 2l-3 1 2 1 3-2-2-1 1-1Zm-5 10-1-3v1l-2 1c-1 3 0 6 1 8h1v2-1l1 3h1l1-2c-2-1-1-4 0-7l-2-2Zm16 15 3-4h-1l-3 1-3 2v1l3-1c-3 3-8 4-12 1v5-2l1 1c1-2 3-1 4-1l5 1v-1l3-3Zm-9 9-3 1 4 3 2-1c-1-1 1-2 2-3h-5Zm11 4-4 2c2 4 2 8 2 12l1 7v-5c0-2 1-3 3-3-2-3-4-5-4-8l-1 1v-3h4l-1-1 2 1h2v-1l-4-2Z"/>
  <path fill="#F99565" d="M560 14h-2l-5 11 8-1c1-1 3-3 2-5s-3-3-3-5Zm-1 19c0-2 0-4-2-4 2 2 2 5 0 8l-6 8 2 2-1-1v-1l3-4 4-8Zm2 13c0-1 0-3-1-2l-5 2c-1 1 1 2 2 1h5v1l-1 1h3-1a77 77 0 0 1 1-2l-3-1Zm22 3-3-5-10 10c0-3-2-5-4-7l-1 1c3 2 4 6 6 8l-2 3 1 3-7 7c-1 1-3 2-2 3 5-1 9-4 13-4l-2 2h1l4-2c-1 2 1 4 3 4l5-2-5 14 2 4 3-1 2-6 2-10v-2l-1-3-3 3 1-3c-2 1-3 3-5 3l-3-1h-1c0-2 2-3 4-4l5-7-2-4-1-4Zm-6 7c1-1 2 1 2 2l-2 5c-1 2-3 1-4 1-1-2 1-4 1-5 1-1 1-3 3-3Zm-21-1h-1c-1 2-2 4-1 5l6 1c-1-2 1-2 2-2l-2-1 1-1-5 1-1-3h1Z"/>
  <path fill="#F99565" d="M559 63c-1 0-3-1-4 1 2 2 6 2 9 0l-5-1Zm7 13v3l1-1c0 3 2 5 4 8-2 0-3 1-3 3v5c2-1 1-3 1-5h-1l3-1c1-2 0-3-1-4 0-3-3-5-4-8Z"/>
  <path fill="#6C6C6B" d="m571 18-2-2 1 4 1-1v1-2Zm53 63h-2l1 1 5 3h2c-1-2-4-3-6-4Zm-89 6-2-1-4 4c-6 3-10 7-12 12-1 1-2 3 0 4 2 0 3-2 4-3l3-3-3 9 2 1 5-8c-1 3 0 6 1 9 0 1 0 3 2 4l-2-12c1-2 2-4 0-6-1-1-1 1-2 1v-2l-7 5c2-4 6-7 10-9 1-2 2-4 5-5Zm-9 13-3 7 3-7Zm43-3c-1 0-2 1-1 2 4 2 8 2 13 1l-1-2c-3 1-7 0-11-1Zm-30 8c-1 3-2 6 0 9 0 1 0 3 2 2l-1-1-1-10Z"/>
  <path fill="#5A2509" d="M589 18v3l1 8v4h1v-6l1 4 2 16-1-11c-1-4 0-8-2-13 0-1 0-4-2-5Z"/>
  <path fill="#5A2509" d="M591 33h-1v3l-1-2v1l-2-2 5 13-1-13Zm0 17-3-9-1 2 2 9 1 5 2 1-1-8Zm24-5h-2l1 1h-1l-1-1 1 13 2 21v7l-1 1-2-7V59v24l1 5 1 4h-1l2 1-1 1 2 18 3-2 2-5 1-13h-1l-1-1-2 16-1 2c0-6 2-11 1-17l-1-18c0-3-2-6-1-8 2 5 3 11 3 16l1 6-1-10a176 176 0 0 0-1-14l-1-4-1-3 1-1-2-11Zm-8 5-1-1h-3v1l1 1-2 1 1 7c1 7 0 14-2 21-1 5-3 10-6 14l1 1-2 1-1 2v2l-1-1 1 1c-2 1-1 3-2 4h-1l1-5c-2-1-2 2-2 3l-1 9 1 11v2c2 6 4 13 10 17h3c0-4-4-8-5-12-2-3-2-7-3-11v-8l4-7 4-9a68 68 0 0 0 5-44Zm-22 2-2-3 1 4 1-1Zm-34 4-1-3v1l-1 2v2c2 3 1 6 2 9l2 4 2 1-1-3c1 2 2 4 5 4l-4-3-1-5-1 1-2-10Zm12 19h-5l1 1c2 1 2 3 3 5v13l1-3 2 4h-1v1h2v-1h-1l1-1v-5l-3-14Zm49 32-1 2-2 4v2l-2 1h2v1l2-5h1v-5Z"/>
  <path fill="#1676D0" d="m571 19-1 1 2 8v1l1 2 3 6c1-3-2-5-2-8l-3-9v-1Zm-19 26v1a28 28 0 0 0 1 1l2 1-2-2-1-1Zm10 2h-5v1h5v-1Zm20 18c2-3 6-5 4-8l-5 7c-2 1-4 2-4 4h1l4-3Zm37-6h-1v5l1 14 1 10v3l1 1h1l-3-33Zm-45 9c-4 0-8 3-13 4l-2 1h5l8-3 2-2Zm-10 6 1 6 1 9v8l1 2 1-5-1-7c0-4 0-8-2-12l-1-1Z"/>
  <path fill="#FFA9BD" d="m561 29-3-3c-1-1-2 0-2 1l1 2c2 0 2 2 2 4l-4 8c1 1 2 2 3 1l3-4 2 4c2 0 4 3 3 5 2 2 4 4 4 7l10-10c-2-1-2-3-3-5l-5 5-2-1-4-4-3-2-2-3 2-4v-2l-2 1Z"/>
  <path fill="#FFA9BD" d="m571 35-3-1-1 2 4-1Zm-22 0-1 9 2-1v-1l1 3 6-8-3 2h-3l-2 1v-5Zm15 19c-3-2-5-1-8-1h5l3 1Zm4 2-9-1 2 1c1-1 3 0 2 1 0-2 3-1 5-1Zm-4 7v1c-3 2-7 2-9 0 0 1-1 3 1 4s4 2 6 1l3-3-1-3Zm13 5-4 2c1 2-2 2-4 3l4 2c2 2 4 1 5 1l3-2-2-2h1c-2 0-4-2-3-4Zm-28 3-2 1v5l1-3 1-3Zm22 5-2-1 1 1h-4c1 3 4 5 4 8 1 1 2 2 1 4l-3 1h1c0 2 1 4-1 5l9 2 5-2 1 2 1-3c-1-2 0-4 1-5v-1l-3 1-2-4 1 5-3-1-8-11 3-1h-2Z"/>
  <path fill="#535353" d="m555 33-1 1h-1v1-1l-1 1h3v-2Zm75 52h-2c1 2 3 4 5 4 3 2 6 2 7 5l1 5c1 6 0 12-2 17v3l3-3c2-4 2-8 2-12l2 10 2-1-2-11-5-11-9-4-2-2Z"/>
  <path fill="#535353" d="M634 92c-2-1-3 1-3 2l-2 11c0-4 0-8-2-11h-2l-1 7v12l1 2v1l1-1 1-17 1 9 1 2 2-2 2-12h1v1-4Z"/>
  <path fill="#FED0B9" d="M395 1h7c2-1 4 1 4 3l1 5-2-4-2-3c0 1 0 3 2 4l1 2h-1c0-1-1-4-3-2l-1-4c-2-1-5 0-6 1 2-1 4 0 6 2h-2l-3-1c-3 0-6 2-8 5l4-1-3 3v-1l-6 5c-2 4-5 7-6 11l-3 8c0-7 5-13 8-20l-3 5c1-6 7-10 11-14l5-4Zm31 17c1-2 3-3 5-3l4 5 1 3 1 5-2-4v1-2l-1 1v3l1-2v3h-1c-1-2-1-5-4-7l4 1c-1-3-3-3-5-3v1l-2-1h1c1-2 3-1 4-1-1-2-4-1-6 0Zm-13 0 5 3-1 4c2 3 5 4 7 5h-2l4 2 1-1 1 1h2l-3 2v1l-4-2v-1h-5l-1-1h-1 3l-5-2-1-1h-1v-1l-1-1h-3l2-1v-1h-1l1-1-1-1 2 1-1-1h2l1-4Zm-39 26c-1-2 0-4 1-6v6l-1-2v2Zm26-6 3 3-1 5c-2 1-4-1-3-3 0-1 2-2 1-3v-2Zm-25 6 2 5 2 3 2 5 1 2c2 3-1 7 1 11h2l-1 1h1v3h1v3h1v3c-3-4-4-8-5-11-2 0-4-1-5-3l-4-7c-2-2-1-5-1-8 1-2 2-4 4-3l-1-4Zm-2 7 3 1s1 2 2 1c0-2-1-3-3-4l-2 2Zm4 9 1 2 1-6c-1-2-2 1-2 2v-4c-2 2-1 4 0 6Zm-3 0c1 1 1 4 3 5 0-4-3-7-3-11-2 2 0 4 0 6Zm27-2c-2-1-2-4 0-6l-1 2h2c-1 2 2 4 4 3v-1 2-1h-1v1c1 0 2 1 1 2h-1v-1h-1l-3-1Zm-11 28 2 1 1 2 1 1 5 2v-1h1v1h-1c1 2 3 4 5 4a209 209 0 0 0-1 0l-1 1v-1l-1-1 1 1h-2l1 2v1h-2l2 4c1 3 1 7 4 9l2 1h-1l-1 3c-1 2-4 1-5-1l-5-13c0-2 2-3 1-5l-3-6h1-1l-3-5Z"/>
  <path fill="#FFE8D1" d="M408 2h1l2 3V4v6l2 2V9c2 0 2 2 2 3l2 2 3 1h-1v1h-1v-1l-4 1h1l-2 2 1-2-9-2-11 2-6 2c2-2 3-4 6-5l5-1h9V2Zm4 20c0-2-1-4 1-4l-1 4h-2l1 1-2-1 1 1-1 1h1v1l-2 1h3l1 1v1h1l1 1c-3-1-6-2-8-1l-8 1-3-3c0-1 1-2 3-2 4-2 9-2 14-2Zm-26-1 2-2-1 2h1l-2 7h2l3 1 1 3h-1c-2 1-5 2-5 4l6-3 1 2-1 1c-2 0-4 2-5 4l-2 2 1 1-1 7 2-2c4-2 8-2 12-5-1 2 1 4 3 3l2 1h-2l-4 8c-2 3-6 4-8 5s-3-1-5-1l2 3c-1-1-1-3-3-3l-4-12 1-7-1-1 1-3-1 2 1-4-1 1h-1c1-2 2-4 1-6l-2 2 1-3 1-1v-1h2l4-5Z"/>
  <path fill="#ECC58F" d="M411 4c1-1 1-2 2-1l3 3c-1 2-4 0-5 2l2 1v3l-2-2V4Zm-19 4c2-1 4-3 7-3h1c-2 0-2 2-1 4l-3-2-2 2-3 1-7 9c-1 2-4 4-4 7h2-2v1l-1 1h-1l-3 7c0-4 2-7 3-11l7-10 4-3 3-3Zm24-1 2-2 3 4 2 2 1 5-2-4-4-2-2-3Zm18 17 1-1v2-1l2 4 2 8v-1h-1v2l-2-3 1 8c-2-2-2-4-2-6l-1-1v-2c2 0 1-3 0-5h1v-3l-1 2v-3Zm-23 10c-1-1 1-2 2-2l-1 2-1-1v3l-1 6v5l2 2-1-5 1 2 4 7h-1c0-1 0-2-2-1v-2l-5 2-1-3 1-8c0-2 1-5 3-7Zm-7 8 1-2-1 7-2-1 2-4Zm30 0v11l-1 11-1 4h2l-1 1-4 10h-2c-5 5-11 7-17 8l4-5 7-8c2-2 4-3 3-5l1 2 1-4-1-5 2 6c1-3-1-6-3-8v2h-1l1-1-4-1 1-3c1-1 3 1 4 1 3-2 4-6 5-9l1-5h2l1-2Zm-55 10 1-5 4 12c2 0 2 2 3 3l5 8c1 1 4 2 5 5l-2 3c1 2 3 2 5 3s2 4 0 6l-7-2-3-2-1-1h-1l-1-2v-3h-1v-3h-1v-3h-1l1-1h-2c-2-4 1-8-1-11l-1-2-2-5Z"/>
  <path fill="#ECC58F" d="M411 58h2l-1 1h3l5 1 2 3 2 4-1-1h-1v1h-1l-1-1-4-2h-6 2l-2-1c1-1 0-2-1-2v-1l2-2Zm-7 1h1v1h1l-2 3-5 3h1-6l-2 3c-3-3 0-6 2-8h5l5-2Zm-11 6c2 1 3-1 2-2l-2 2Zm-7 19h2l2 6 5 20c0 4 2 7 4 10h-3l-1-2-3-6-4-4-3-5V87l1-3Z"/>
  <path fill="#ECC58F" d="m390 112 4 7 2 3c2 0 2 1 3 2h-2a51 51 0 0 1-1-1l-4-4-2-7Z"/>
  <path fill="#E5A464" d="M406 4c2 0 1 2 2 3v5h-9l1-1h8l-1-3v1h-1v1l-1-2h1l-1-2V5l2 4-1-5Zm5 4c1-2 4 0 5-2v1l2 3 4 2 2 4-1-5 2 6 2 2 2 1 1 1c3 2 3 5 4 7s2 5 0 5c-2-1-2-3-3-5l3 2-2-6-6-5v1l1 1 4 6h-1l-2 3h-4c-2-1-5-2-7-5l1-4-5-3 2-2h-1l4-1v1h1v-1h1l-3-1-2-2c0-1 0-3-2-3l-2-1Zm-31 18c0-3 3-5 4-7-1 1 1 3 2 2l-4 5h-2Zm-2 2h1l-1 3 2-2c1 2 0 4-1 6l1-4-2 2h-1l-1 4-1-1v6-7l3-7Zm20 2c2 0 3 2 4 4s3 3 3 6l-1 2-2 4 1-5-3-3v2l-1-1 1-1-2-1h2l-2-2-1-3-5 1-6 3c0-2 3-3 5-4h1l3-1h2v-1l2 1-1-1Zm20 2h5v1l4 2v1l-2-1-5-2h1l-3-1Zm-38 3 1-1-1 4 1-2-1 3v1-2l-1 1 1-2h-1v-2h1Zm57 7-1-8 2 3v-2h1v4l-1-1-1 4h2l-2 1-2-2-1-3v1l-1-1h1v-3l1 1c0 2 0 4 2 6Zm-3 1 1 6c1 1 2-1 3-1v1l-2 2-2 2V43Zm-14 17 4 1-1 1h1v-2c2 2 4 5 3 8l-2-6 1 5-1 4-1-2v-2l-2-4-2-3Zm-27 5 2-2c1 1 0 3-2 2Zm-3 18 3 2 7 2c-2 2-5 0-7-1l-3-3Z"/>
  <path fill="#AB6107" d="M400 5h1l1 1c2-2 3 1 3 2l1 2V9h1V8l1 3h-8l-1 1-5 1c-3 1-4 3-6 5v1l-2 2c-1 1-3-1-2-2l7-9 3-1 2-2 3 2c-1-2-1-4 1-4Zm26 14 6 5 2 6-3-2v-1l-4-6-1-1v-1Zm-48 14 2-2-1 4v2h1l-1 2 1-1v2l-3 9-2-5v-8l1 1 1-4h1Zm35-1 3-1h1l1 1 3 1h-1l-7 1-1 1-1 1v-3l1 1 1-2Zm21 6 1 3 2 2 2-1-1 6c-1 0-2 2-3 1l-1-6v-1l-1-2v-2l1 1v-1Z"/>
  <path fill="#AB6107" d="m438 38 1 1v3h-2l1-4Z"/>
  <path fill="#FFA5B9" d="M430 27h1v1c1 2 1 4 3 5a36 36 0 0 1 0 5h-1c-2 1-3-1-5-2l-1-1v-1l3-2h-2l-1-1-1 1-4-2h6l2-3Zm-17 7 7-1 5 2-5-1-1 1c3 0 7 2 9 4l-1 2c0-2-3-4-5-5l-1 1h-2l1-1h-1c-1-1-4 0-4 2l-1-1v-2h1v-1h-2Zm-26 7 3-3-1 3-3 2-1-1 2-2v1Zm33 4h4l-3 2c2 2 4 2 5 5 1 2-1 3-3 4-3 1-5-2-6-3l2-3-2-3c1 0 4 1 4-1l-1-1Zm18 4h1c1 0 2 1 2 3 0 3 1 7-1 11v-1c-2 2-4 5-7 5l3-16 2-2Zm0 2-2 4-1 3v4c2 0 3-3 2-5l2 1v-1c1-2 2-4 1-7l-2 1Zm-35 3h4l2 1v2h2l-1 1h1l-2 2v1l-3 1 2-4v-3h-2v1l-3-2Zm-6 14 8-2 5 1h11l-4 2v2c-2 3-5 5-9 4-2 0-5-1-5-4h-2l1-1h1l-6-2Zm5 0h4c4 1 7 0 11-1h-4c-1 1-3 2-5 1h-6Zm11 1h-8v3c2 2 5 2 8 1l2-3-2-1Zm16 10v5l1 10c0-1 1-4-1-3-1 0-3 1-3 3h-1v-2 1l-1-1 1-3h1c1-2 3-4 2-6-1-1-2 1-3 2l-1-1 4-4 1-1Zm-16 14 7-1c-2 6-4 11-4 17v3l-1-1c-1 4-2 8-5 12 0 2-2 2-4 1l-1-4 3-6-2-1h1l4-7v-5l-5 9-4-7-1-4v-1l-1-2h2l-1-1 1 1v1l1-1v1l1-1c4 1 7 0 9-3Z"/>
  <path fill="#A75A7A" d="M413 34h2v1h-1v2l1 1c0-2 3-3 4-2-2 0-4 2-5 4v2h1l-4 2 1-9 1-1Zm-20 1h5l2 2h-2l-2-1-4 1v-1l1-1Zm47 15c1 3 0 5-1 7l1-6v-1Zm-4 5h1l2 3-2-1c1 2 0 5-2 5v-4l1-3Zm-29 15h8l-2 3-8-1v-1l2-1Zm-1 18c6 0 12 0 18-4l1 1v4l-1 3-3 10-1-1h-1l2-1 2-9h-3l2-3-5 2-5 1h-12l-8-4 1-1c2 1 5 3 7 1h5l1 1Z"/>
  <path fill="#A75A7A" d="M420 92c2 2-1 4 0 6l-1 1-3 10c0-6 2-11 4-17Z"/>
  <path fill="#E56775" d="m427 35 1 1c2 1 3 3 5 2v2c-1 1-3 0-4-1l-2-3v-1Zm-40 5c1-2 3-4 5-4a8 8 0 0 1-1 2h-1l1 1-2 2 1-3-3 3v-1Zm23 2 1 3v-1l1 5-2-2v-5Zm3 3 2-2 2 2c1 2-4 2-4 0Zm-40 6 2-2c2 1 3 2 3 4-1 1-2-1-2-1l-3-1Zm40 1c2-1 2 0 2 1 1 2 0 4-2 5 1-1 2-3 1-5l-1-1Zm-1 1 1 2-2 2h-2l3-2v-2Zm-35 7c-1-2-2-4 0-6v4c0-1 1-4 2-2l-1 6-1-2Zm-3 0c0-2-2-4 0-6 0 4 3 7 3 11-2-1-2-4-3-5Zm39 9 2 1h-8l-2 1v-2h8Zm12 16c1-1 2-3 3-2 1 2-1 4-2 6h-1v-4Z"/>
  <path fill="#9B4365" d="m411 36 1-1-1 9v1l-1-3 1-6Zm10 1 1-1c2 1 5 3 5 5h-2c0-2-2-4-4-4Zm-6 6h3l2 1-3 1-2-2Zm22 12 3-4-1 6v1l-2-3Zm-37 11c2-1 4-3 6-2h6l3 1-1 1 3 1h-7l-5-1-8 2-2-2h5Z"/>
  <path fill="#1676D0" d="M439 35v1l1 2-1 11h-1v-1l1-6v-7Zm-59 4 1 1-1 7-1 5-2-3 3-9v-1Zm40 1c1 0 3-1 5 1h-6l1-1Zm-6 13c1 2 0 4-1 5h-3l1-1 2-2 1-2Zm19 14c3 0 5-3 7-5v1c-1 3-3 5-6 5h-2l1-1Zm-23 20c6-1 12-3 17-8h1v1l-4 4c-6 4-12 4-18 4l-1-1h5Zm-4 23 5-9v5l-4 7-2-1c-3-2-3-6-4-9h1l4 7Zm15 2c1 0 3-2 4-1l-7 8-6 7-3 3c-1-1 0-2 1-3l8-10 3-4Z"/>
  <path fill="#656565" d="M414 40c1-2 3-4 5-4h1l-1 1h1-3v1l1 3 2-1-1 1-2-2-1 2-1 1h-1v-2Zm17 48 3-1c3 1 7 2 10 5v1l1 1v1c2 0 2 2 3 3h2l1 1-4-1-4-5v1c-3-3-6-4-9-5l-3-1Zm-63 10c-1-1-2-3 0-4l3 2c-1 0-3 0-3 2Zm65 1c0-2 2-2 3-1 2 1 2 3 3 5 2 2 2 5 3 8l1 8 1 2-2 1 1-1-1-1v2c-1 0-3 1-2-1h-1v2l1 1v-1h2v1h-5v1l1-1 1 1h-1l-1 3h-1l1-3h-2l2-2 1-2h-1v-1h1-2l1-8c1-3-2-7-3-10l-1-3Zm-48 2v-1 3l-1 1v2l-2-3 3-2Zm-22 8h5c0 1 0 2-2 2l-15 3h-3l2-3 13-2Zm55 10 7-8c1 2-1 2-2 3l-4 6-1-1Zm39-2c-1-1 0-3 1-2l14 4v2l-15-4Zm-66 4h2l3 2v1l1 1-1 1-4-2c1-1-1-2-1-2v-1Zm2 21 1-2c1 1 0 3-1 3h-1l1-1Z"/>
  <path fill="#2E2D2D" d="m392 37 4-1 1 1v2l-1 1-2-1 1-1h-2v2l-2-1-1-1h1l1-1Zm28 0h1c2 0 4 2 4 4-2-2-4-1-5-1l-2 1-1-3v-1h3Zm-1 2h2-2Zm19 12 2-1v1l-3 4h-1l2-4Zm-29 4 3-2v2l-3 2v-2Zm-7-1h1l3 2v1c-2 1-5-1-4-3Zm42 39v-1l5 6c2-1 5 0 7 2 0 1-1 2-2 1l-4-2c0 1-1 2-2 1l-5-6v-1l4 5 4 1-1-1h-2c-1-1-1-3-3-3v-1l-1-1Zm-62 8 2-1 1 1-3 2v-2Zm-8 1c2 1 3-1 4-1h2l-1 1v1-1l-3 1c-2 0-3 0-4 2h3l-1-1h1v1h3-1l2-1-2-2c2 1 3 2 2 4h1v-1h1c-2 5-1 10 0 14 1 5 4 10 8 13l5 8-1 2-1 1a291 291 0 0 1-20-24c-2-5-2-11-3-16 1-1 3-2 5-1Zm10 2 1-1 3 5 4 4 3 6-1 1-4-7-6-6v-2Z"/>
  <path fill="#414040" d="m397 37 3 1-1 1h-2v-2Zm18 28 5 1 1 1h-4l-3-1 1-1Zm-36 22h6a59 59 0 0 1 0 14l-1-1-2 1v2h-1v2h-1a125 125 0 0 0-1 1c1-2 0-3-2-4l2 2-2 1h1-3v-1h-1l1 1h-3c1-2 2-2 4-2l3-1v1-1l1-1h-2c-1 0-2 2-4 1s-4 0-5 1c-1-1-2-3-1-5 0-2 2-2 3-2 1-4 4-8 8-9Zm49 6c1-1 2 1 2 2v1l1 3h-1l1 1c1 2 0 4-1 5l-2 3V93Zm27 10c1-1 4 0 4 2-1 4-4 6-5 9l-8 10-8 9-4 7-1 2c-1 2-4 1-4-1l2-7 1-4a84 84 0 0 1 4-10h2-1v1h1l-1 2-2 2h2l-1 3h1l1-3h1l-1-1-1 1v-1h5v-1h-2v1l-1-1v-2h1c-1 2 1 1 2 1v-2l1 1-1 1 2-1-1-2 7-8c0-2 2-3 3-4l2-4Zm-70 8h3c1 4 2 7 5 10h-2v1s2 1 1 2l-4-6-3-1c-2-2-2-4 0-6Zm10 7 1 2h3c2 4 5 6 9 8 1 1-1 2-2 1l-7-5c-1-1-1-2-3-2l-2-3 1-1Z"/>
  <path fill="#918B8F" d="M394 38h1l-1 1 2 1c-1 0-3 1-5-1l2 1v-2 1h2l-1-1Zm33 41h2l-1 1v-1h-1Zm-7 12h3l-2 9-2 1h1l1 1-1 3-3 5-2 2h1v-3l3-10 1-1c-1-2 2-4 0-6v-1Zm10 5 2 3c1 3 0 5-2 6 1-1 2-3 1-5l-1-1h1l-1-3Zm-31 3h2l1 4h-1l-2-4Zm24 18c2-2 4-6 8-6 1 0 4 0 4 2l-5 1-7 5c-1 3-3 6-6 7-2 0 0-2 0-3 3-1 4-4 6-6Zm-11 9 6-7 1 1-7 9c-3 3-4 7-8 8v-1l5-7 3-3Zm-16-2h1l4 4-5-2 1-1-1-1Z"/>
  <path fill="#DE8092" d="M429 39c1 1 3 2 4 1l1 2-1 2h-2l-2-5Zm-14 3 1-1c2 2 6 2 9 2l-1 2h-4l1 1c0 2-3 1-4 1l2 3-2 3h-1l-4-7-1-2 4-2Zm0 1-2 2c0 2 5 2 4 0l3-1-2-1h-3Zm19 10 2-2-3 16-1 1 1-4 1-11Zm-28 2h2v3h-2v-2 1-2Zm0 7 3-1c1 0 2 1 1 2-1 2-4 1-4-1Zm-1 10 8 1c-3 1-6 1-8-1Zm-17 10h1l1 1 3 3-1 1-2-1-2-4Zm4 5 8 4h-1v1l-5-2-1-1-1-2Zm25 3 5-2-2 3v1l-7 1-13-1v-1h12l5-1Zm12 1c2-1 1 2 1 3v1c0-1-1-3-2-2v15l-3 3c-1-1-3 1-4 1l-3 4 2-11 1-3 3-10 1 1v-1 2a682 682 0 0 1 4-3Z"/>
  <path fill="#CAA186" d="m259 2-7-2-6 1v1l-3 2-4-3 1 2c-2 0-3-2-5-1l-2 2 4-1 5 3c0 1 1 3 2 2l-1-2c2-2 5-3 8-2 1 1 1 0 1-1l-2-1 5 2 2 4c-1-2-5-3-5 0h-1l2 1V7h1V6l1 3h3l1-2V6l-2-2c1 0 3 0 2-2Z"/>
  <path fill="#CAA186" d="M262 5c0-1-1-2-2-1l1 5-1-1v2c1-1 1-3 2-2 0 3-2 5-5 6l-2-1c1 1 2 2 3 1 4-1 7-6 4-9Zm-28 0-4-1c-2 0-3 2-4 3v1c1-1 3-3 5-3v1h4c2 1 3 4 5 4l-1-1 3 1c1 0 2 1 3-1l-1 1-4-4-2 2c-1-1-2-3-4-3Z"/>
  <path fill="#CAA186" d="m232 8-2-2-4 3c2 1 0 3 0 4l5-4h-4c1-2 4-2 5-1Zm7 3-6-3 1 3 5 2h3l-3-2Zm26 2c0-2-2-2-3-1l-3 2c-1 1 0 1 1 1l2-2c2 0 5 0 6 2l-1 1h1v1c1-2-1-5-3-4Zm5 16v-3l-1 1 1 4v-2Zm-6 0-3 1v1l3-1v-1Zm6 6-2-4v1l-8 1h-2v-1l-2 5c2 4 5 7 6 12v-2l1 3v-1l-1-3-3-6v-1l-1-1v-1c1-2 3-3 5-3v1l1 1h1v-1c2 0 3 2 3 4h1c0-3-3-5-6-5 1-3 6-2 6 1h1Zm-32 2v1h3l-3-1Zm12 8-1 1-2 2 1 1v-1l2-2v-1Zm-3 4c0 1-2 3 0 4l7 2c0 1 1 2 2 1v-4h-2c1 1 2 2 1 3l-4-2-3-2-1-2Zm15 1-4 2c-2 0-2 4 0 5l1-1 1-3 2-3Zm11 2h-1c1 6-2 11-4 16l-3 5-1 2 5-7c3-5 4-10 4-16Zm-4 5-1-4v6l1-1v-1Zm-29-1-2 3h1l1-2v-1Zm-16 15-2-3c-1 2 0 3 1 4 1 3 4 5 6 7l2-2-5-5-2-1Z"/>
  <path fill="#9A6D56" d="M260 8c1-1 0-3-1-2v5l1-1V8Zm-6-2v1h-1v2l-2-1c0-1-1-2-2-1l-1 2h-3c-1 2-2 1-3 1l-3-1 1 1 1 2 4 1h10l-1-7Zm-1 5h-2c-1-1-3-2-2-4l4 4Zm-5 0 3 1h-4c-1-1-2-1-1-2s1 0 2 1Zm-1 1v1l-5-2c2-1 3 1 5 1Zm-21-4V7l-8 7-3 3c-1 2-3 4-3 7l1 14c0 1 1 3-1 3l1 1h3v-2h-1l2-1 1-4v-4l2-2c1 0 2-1 1-3h-2l1-1h-2l1-1h-2l2-1-1 1h2v-2 1h-1c1-1 0-2-1-3h1-3c0-2 0-4 2-4l3-2 2-1 1-1h-1 2l-1 4v3c1-2 2-3 4-3l1-2-1 3 3-2-3-2c-1-2-1 2-2 2v-2c0-1 2-3 0-4V8Zm42 7c-1-2-4-2-6-2l-2 2 3 1-1-1c1-1 5-1 4 1l2 1v-1h-1l1-1Zm-8 22-1 1h1v-1Zm-51 49-7 1c-4 2-9 3-12 7v1l5-2c3-3 8-5 12-6l2-1Zm-16 3-4 1c-6 2-14 2-19 7l5-1 17-5 1-2Zm73 18-2 3h1l1 2v-5Zm33 1-3 12v-1 1l2-5v3c1-4 2-7 1-10Zm-68 12-4-6v1h-1l4 6 8 13 1 3-1-4-7-13Zm23 1c-2 0-2 2-2 3-1 5-3 9-3 14v4l1-1 2-13 2-7Zm-11 3c-2 1-3 3-4 6l5-4 1-1h-1l-1-1Zm-5 15-4-5-2 1 9 10 1 1h1l-5-7Z"/>
  <path fill="#555453" d="m255 9-1-3 1 7 2 1c3-1 5-3 5-6-1-1-1 1-2 2l-1 1V7l-1 2h-3Zm-8 3c-2 0-3-2-5-1l5 2v-1Zm-6 23h-1 1v1c2 0 1 1 0 1l1 1h2c0-2-2-2-3-3Zm24 3-3-1h2v1h-1l2 1 1-1h-1Zm-45 21h-1l1 2 1 6 1 1 2 3v-1l-4-10v-1Zm1 18c-2 0-5 0-6 2l-7 11c-1 2-4 3-3 6 2 0 3-2 5-3l-1 7 2-5 1-5c1-1 3-3 1-4h2l1-2c1-1 2-2 3-1l1-5 1-1v6-6Zm54 17c-4-3-5-9-10-13l1 5-1-2v7c0 4 1 8-1 12l-4 7 5-4c2-2 2-5 2-7V87l3 6h2v1h3Zm2-4h-4l4 2 19 7h3l-2-2c-7-1-13-4-20-7Z"/>
  <path fill="#555453" d="M193 96h-3c0 2 2 3 3 4l13 11c0-2 0-5 2-7 2 1 1 5 1 7l-2 2 10 8 15 14 2-1-14-15-11-8c0-5 3-9 3-14l-2 6h-2c-5-3-9-6-15-7Zm104 7c0-2-3-3-5-2 2 0 4 1 4 3l-2 13 1-1 1 3 1-10v-6Z"/>
  <path fill="#555453" d="M219 106c-1-1-2 0-2 1l2 2 7 6h1v-1l-8-8Zm25 27c-2-1-3 1-2 3 0 1 3 2 4 0l-2-3Z"/>
  <path fill="#3A3234" d="m253 11-4-4c-1 2 1 3 2 4h2Zm-5 0c-1-1-1-2-2-1s0 1 1 2h4l-3-1Zm-18 1-2 1 3 2-3 2 1-3-1 2c-2 0-3 1-4 3l3-2-2 3 2-1v2c2-1 3-2 3-4h-1c2-2 5 0 6-2h2l1-1-8-2Zm5 3-6-2v-1l6 3Zm7 18h-3l-2 3 5-3Zm21 1c-2 0-4 1-5 3v1c2-2 3-3 5-3v-1Zm5 5c0-2-1-4-3-4v1h-1l2 1 1 2h1Zm-54 3h-2v1c3 0 3 3 4 5l1-1-2-4-1-1Zm40 8h-4l1 1h2l1-1Zm-33 33v-6l-1 1-1 5-2 13v7l1-6 2-7 1-7Zm22-1-5-2v1c4 4 10 6 16 6l3-2v-1h-6l-8-2Zm29 11h-2c2 4 3 8 6 11 3 1 5-2 7-3 1-1 0-2-1-2l-7-5h-3v-1Zm-7 17h-1c-2 3-2 6-5 7h-7c-4 1-6 4-9 7l1 1h1c3-3 8-6 12-5 5 1 8-4 9-8l-1-2Zm33 5-2 5v-1l-1-3-1 1v5h3l1-4v-3Z"/>
  <path fill="#FFD6BC" d="m239 13-5-2-2 1 3 1 4 1h1l-1-1Zm16 0h-10l-9 5c-1 1-3 0-5-1 0 2-1 3-3 4l-3 2-1 3 1 4v2l4-4c1-1 3-2 4 0 1 1 0 2-1 3l1 1 3-3c2-1 5-2 7-1h-1l2-1c0-3-2-3-4-4l2-2 8-7 5-1Zm-8 26-2-4-1 3h-1 1l3 1c0 3-4 5-6 4h1c-1 1-2 2 0 3h7l1-1v1l5 2-1-7 1 1-2-5-1 2-2 4-1-3-2-1Zm23 6c1-1 0-2-1-3v1l-7-1c0 2 2 3 0 4l1 3 5 4 1 4 1 1c2-2 2-4 1-6v-3l-4-4h3Zm-31-2c-2-1-5-2-7 0h7Zm-8 1h-1l-6 6 1 2 5 11c2 3 4 4 4 7-1 1-2 2-4 1-4-2-6-8-9-12l-1 1 4 10 2 1 14 9 3 2 8 2c-1-1 0-2 2-1 4 1 7-3 9-7-3 0-2 4-4 3-5 1-9-2-11-5l-5-6-8-8c0 5 3 9 4 13l-3-4c-2-4-4-7-3-11l1 2c0-2 1-5-1-6l-1 4-5-7c0-3 2-5 5-7Z"/>
  <path fill="#9E4927" d="M232 12h-2l8 2-1 1h-2c-1 2-4 0-6 2h1l6-1 3-2-4-1-3-1Zm-7 0h-2 1l-1 1-2 1-3 2c-2 0-2 2-2 4h3-1c1 1 2 2 1 3h1v-1 2h-2l1-1-2 1h2l-1 1h2l-1 1h2c1 2 0 3-1 3l-2 2v4l-1 4-2 1h1v2h-3 1l1 1c2 0 3 3 5 4h3l1-10 1-7-1-4 1-3 1-2h1v-2l-2 1 2-3-3 2v-3l1-4Zm43 5-1 1h1c0 2 2 4 0 6l1 3 1-1-2-9Zm-30 12h-2a22 22 0 0 0-4 3v2l5-3 2-1-1-1Zm9 0h-2l3 2 1-1-2-1Zm21 2-4-1-3 1v-1l-3 2v1h2l8-1v-1Zm-22 3-3-1c3 0 3 4 5 6l-2-5Zm10 17-2-1-1 1h-2l5 1v-1Zm11 8-1-1-1 1-2 2h2l2-2Z"/>
  <path fill="#E48451" d="m245 13-4-1 1 1h-3l1 1h-1l-3 2-6 1c0 2-1 3-3 4h-1l-1 2 3-2c2-1 3-2 3-4 2 1 4 2 5 1l9-5Z"/>
  <path fill="#E48451" d="m235 15-6-3v1l6 2Zm8 13c-2-1-5 0-7 1h2l1 1-2 1h6l3 1 3 3 3 6v-2l1-2-3-4v-3l-3-1 2 1 1 2c-1 1-3 0-4-1-2-1-4 0-5-2h6l-4-1Zm-11 4-1 2h1v-2Z"/>
  <path fill="#E48451" d="M243 33h-1l-5 3 2-3c-2 1-5 2-6 5h2l2-2 3-1h1l1-1h1v-1Zm22 6-2-1-2 1 2 1h4l-2-1Zm-17 9v1l-1-1v1l1 2h2c0-1-2-1-2-3Z"/>
  <path fill="#1A1A19" d="M266 16c1-2-3-2-4-1l1 1v1c3 1 5 4 5 7 2-2 0-4 0-6h-1l1-1-2-1Zm-21 13h-4c1 2 3 1 5 2 1 1 3 2 4 1l-1-2-1 1-3-2Zm3 10c-2-2-2-6-5-6v1h-1l-1 1c1 1 3 1 3 3l1-3 2 4h1Zm-8-4-3 1v1h-1l1 1h1v-1l3-2h-1Zm24 1c-2-1-3 0-4 1v1l2-1 3 1h1v-1l-2-1Zm1 23h-3v1l-1 2h1l1-1 2-2Zm-1 20-1 3-1 15v4c-1 3-5 6-3 10v5l1-2v-4l4-7c2-4 1-8 1-12v-7l1 2-1-5-1-2Zm-48 5-1 2h-2c2 1 0 3-1 4l-1 5-2 5-1 3h2l2-6 4-13Zm-7 27c0-2 1-6-1-7-2 2-2 5-2 7l1 2 2-2Z"/>
  <path fill="#FFE8D7" d="M268 24c0-3-2-6-5-7l1 13v-1 1l4 1 2 4v-6 2l-1-4-1-3Zm-13 1-5-2c-3 0-3 4-1 4l5 4c3 1 4-2 5-4 1-1 0-3-2-3l-2 1Zm12 15h-6l2 1c2 0 5 0 6 2v-1c1 1 2 2 1 3h-3l4 4v3c1 2 1 4-1 6l-1-1v2l-2 5h-1l1 1-2 8 3-5c2-5 5-10 4-16h1l-2-7c0-2-1-5-4-5Zm-12 25h-5l-1 1h6v-1Zm-35 25-2 7 1 9 8 8 4 6 7 13v-1c2 0 3-1 3-2 2-1 3-2 3-4l-5 4c1-3 2-5 4-6 3-3 5-6 9-7l6-7 1 1c-2-4 2-7 3-10h-1l-6 7-11 9c-2 0-5-2-7 0v-1c0 2 1 4-1 5l-5-4 1-1 3 3v-3h-1l-9-7c1-3 0-6-1-10l-1-6-3-3Zm38 18-1 1-8 7-3 1 9-7c1-1 1-2 3-2Z"/>
  <path fill="#FFE8D7" d="m226 115-7-6c1 2 1 4 3 5l8 7-4-6Z"/>
  <path fill="#1676D0" d="M212 24c-2 2-1 6-2 9 1 3 0 6 2 8 2 0 1-2 1-3l-1-14Zm45 27c-1-3-5-3-7-2v1h4l2 1h1Zm10 14-1-1-4 12c-2 4-5 8-9 7-2-1-3 0-2 1h6l3-1 3-4 1-4 1-2 2-8Zm-27 15-14-9v1l5 5 7 3 5 2-3-2Zm1 7-7-3v1c4 3 8 5 11 9 2 1 1 4 2 6h4l-2-5c-1-3-5-6-8-8Zm17 21c-2 0-2 1-3 2l-9 7 3-1 8-7 1-1Zm-21 8c-1-1-1-3-3-3l1 3v3l-3-3-1 1 5 4c2-1 1-3 1-5Z"/>
  <path fill="#FF8694" d="M233 28c-1-2-3-1-4 0l-4 4v-2l-1 7a123 123 0 0 1 8-6c1-1 2-2 1-3Zm16 7-3-3v2l2 5h-1l2 1 1 3 2-4v2l-3-6Zm12 4h-2v1l3 2 7 1c-1-2-4-2-6-2l-2-1h2l-2-1Zm-6 3-1-1 1 7c-2 0-5-1-6 1h1c2-1 6-1 7 2l1 1 4-2v-1h-4c-1-2-1-5-3-7Zm-43 0c-2 0-3 2-2 4l2-2 4 5 1-1c0 2 2 1 3 2l3-3h-3c-2-1-3-4-5-4l2 4-1 1c-1-2-1-5-4-5v-1Zm30 8-5 2-2 2 1 2 2-1 4-5Zm12 2-4-1h-2l3 2 4 2c1-1 0-2-1-3Zm-7 4-7 2v-1 1l4-1 4 1c3-1 6 2 9 1h4l1 1v-1h3l1-1-1 1-1-1h-8l-9-2Z"/>
  <path fill="#FCADA8" d="m246 32-3-1a86 86 0 0 1 0 1c-4 0-8 1-11 3-1 1-2 1-2 3h5-2c1-3 4-4 6-5h4l3 1v-2Z"/>
  <path fill="#FCADA8" d="m231 32-7 5-1 10-3 3c-1-1-3 0-3-2l-1 1-4-5-2 2c-1-2 0-4 2-4h2-1l-1-1c-4 1-5 5-5 9l2 4 2 5 1 1v-1c1 1 2 3 4 3l3-1a134 134 0 0 1 1 0l-1-2c1-3 0-6-2-9v5l-3-2 1-2c1-1 1-2 2-1h1l2 9v1l1-1c3 4 5 10 9 12 2 1 3 0 4-1 0-3-2-4-4-7l-5-11-1-2v-5l6-5c-1-2-3-2-4-1l5-7Zm-18 14c1 2-1 5-1 7h-1v-4c-1-1 1-2 2-3Zm4 10v1l-4-1c1-2 3-1 4 0Zm19-19-3 2v1l4-2-1-1Zm11 2-3-1h-1l1 2c-3 2-6-2-9 0l6 3c2 1 6-1 6-4Zm-5 11c-2-3-4 0-5 2l5-2-4 5-2 1-1-2v3c-1 1 0 2 1 2l4-5 4-4h-2Zm16 7c-4 1-8-2-11-1l9 2h8l-5-2-1 1Z"/>
  <path fill="#FCADA8" d="m233 60-1-2c-1 4 1 7 3 11l3 4c-1-4-4-8-4-13h-1Zm8 0-2-1 4 5c3 2 7 5 12 4 4-1 7-4 10-7h-2l-1 1-5 3-9-1-2-1-5-2v-1Zm14 5v1h-6l1-1h5Z"/>
  <path fill="#FCADA8" d="m222 68-1-1 1 7 4 11c2 3 5 4 8 6 1 6 4 11 6 16 1 2 1 4 3 5h3c4-7 11-12 13-19l4-11 1-3h-1l-3 4h1l-2 5c-3 4-4 9-8 12h-4c-1-2 0-5-2-6-3-4-7-6-11-9l-5-2v-4c-2-2-5-4-6-7-1-1-2-2-1-4Zm37 1c-4 1-9 0-13-1v3c2 2 5 3 8 3l4-2c0-1 3-2 1-3Z"/>
  <path fill="#BF5F7A" d="M213 46c-1 1-3 2-2 3v4h1c0-2 2-5 1-7Zm5 4h-1v2c-1 1-2 0-2-1l-1 2 3 2v-5c2 3 3 6 2 9h1l-2-9Z"/>
  <path fill="#BF5F7A" d="M217 56c-1-1-3-2-4 0l4 1v-1Zm31 2-4-1 3 2c3-1 6 2 10 1l4-1h-4c-3 1-6-2-9-1Zm13 25h-1l-3 1v1l-3 2h-7l-5-1-3-1 2 2c3 2 7 5 8 8l2 5c4-3 5-8 8-12l2-5Z"/>
  <path fill="#AF446A" d="M217 50c-1-1-1 0-2 1 0 1 1 2 2 1v-2Zm23 7-1 2 2 1 6-1-3-2-4 1v-1Zm21 5-1 1h-14l2 1 9 1 5-3h-1Zm-23 18-7-3-2 2v4l5 2v-1l7 3-2-2 3 1 5 1h7c-6 0-12-2-16-6v-1Z"/>
  <path fill="#1676D0" d="m212 60-1-1c0 3 5 6 8 3v-1l-3 1c-2 0-3-2-4-3v1Zm14 11-2-1v1l2 1v-1Z"/>
  <path fill="#AAA9A3" d="m758 1 9-1 4 1h-9c4 1 8-1 12 2-4-2-9-1-13-1h-4l4-1h-3Zm36 25 1 7-1-5v-2Zm-8 43 1-4-1 7v-3Zm-62 23 3-1-3 5v-5 1Zm-16 4 5 15-2-1-4-11c2 0 1-2 1-3Z"/>
  <path fill="#8E7F75" d="m752 2 6-1h3l-4 1h4c-6 0-13 2-18 6-3 2-6 5-6 9v2-6c-1 2-2 4-1 6-2 0-4 1-5 3l5-2h-1c-2 2-5 4-6 7l1 1-1 2-1 4 2 1v8c-2-4-4-8-4-13 1-5 3-10 7-13 1-5 5-9 9-11l-1 1c4-3 10-4 15-5h-4Z"/>
  <path fill="#8E7F75" d="m753 5 4-1h2v1h1-3v1l1-1-1 3h1l-5 2-4 4c-1 1-1 3-3 3h-1l4-8-1 1c-3 1-4 5-6 7 1-3 3-7 6-8l3-2-1-1c1 0 3 1 3-1Zm1 9 4-2h1c-2 2-5 4-5 7-2 0-3 2-5 1l5-6Zm-13 5 2 1-2-1v1c-2 0-2 2-2 3l-1-2 3-2Zm13 0h2v2l-2-2Zm39 4h1l1 2-1-1v1l-1-2Zm-14 61 3-3h1l-2 4h-1l-1-1Zm-74 5c0-2 0-3 2-3l3 3a149 149 0 0 0 12 23c-7-5-11-14-15-22l1 6c0 1 1 3-1 3l-2-10Zm80 11h1c-2 8-7 14-13 20-1 1-1 2-2 1l2-3c5-5 9-11 11-18l2 1v-1h-1Z"/>
  <path fill="#4F4945" d="M752 2h4c-5 1-11 2-15 5l1-1 10-4Zm-3 4 4-2v1c0 2-2 1-3 1l1 1-3 2 1-3Zm9 6c5-3 12-3 17-1h-3c-4-2-9-1-13 2l-2 2v1l-1 3 3 1h-2l-1-1h-2c0-3 3-5 5-7h-1Zm30 0 1 1c3 2 3 6 5 10h-1l-1-2-1-4-3-5Zm-56 15c1-1 2-2 3-1l-1 1-1 3-1 3h-3a95 95 0 0 0 2 1l3-4v5h-4 1v1l-1-1-2-1 1-4h1l2-3v1h1l-1-1Zm62-1v2l-1 1 1-3Zm-21 26v-1 2h-3l-1-2 4 1Zm-4 0 1 1v-1h-1Zm-23-1c0 2 2 2 3 0h1l3 2h-2l-1-1h-1v1h-4l1-2Zm39 13 1 1h1a53 53 0 0 0-1 4v1l-1-1v-5Zm-39 9 3 1v2c-1 1-2-1-3-1v-2Zm22 2 4-1v1l-2 2h-1v-2h-1Zm19 9c1-2 3-1 4 0 4 3 10 2 14 5l5 2h4-1l-5 2 2-1 1 1c-2 1-4-1-5-1l-6-2c-4-1-8-2-11-5l-2-1Z"/>
  <path fill="#291F19" d="M761 2a36 36 0 0 1 16 2h-5v1l3 1c-1 2-4 0-6 0h-7l8-2h-13l-4 1V4l-4 2-1 3c-3 1-5 5-6 8 2-2 3-6 6-7l1-1-4 8h1c2 0 2-2 3-3l4-4c-2 3-5 4-5 8l1-1c2 1 2-3 4-2v-1h1l-5 6-1-1c-1 1-3 2-5 1l-2-1-3 2 1 2-5 7-3 4-2-1h3l1-3 1-3 1-1c-1-1-2 0-3 1l1 1h-1v-1l-2 3h-1l1-2-1-1c1-3 4-5 6-7 2-1 4-2 6-1v-1c-1-3 1-6 3-9-2 1-4 3-4 5h-1l-1 3v1l-1-1c0-4 3-7 6-9 5-4 12-6 18-6Z"/>
  <path fill="#291F19" d="M759 13c4-3 9-4 13-2h-3l-3 2 1-2-7 2h-1Zm27 4c2 1 2 4 5 5h1v-1l1 2 1 2v1l-1 3v3l-1-1v2l-3-2-5-4h1l2 1-3-2v1l-4-4c1 0 2-1 2-3l3-1 1-2Zm-55 18h3-1l-1 8h1l-2 3v-1l-1-2v-8l1 1v-1h-1 1Zm36 12 2-2v1l1-1 1 1-1 1-4 1h-1a51 51 0 0 1 0-2h2v1Zm11 39h1c-1 3-5 5-8 6l-7 5v-1l2-1 4-4 8-5Zm-22 45c-2 0-2-2-1-3l1 2v1Z"/>
  <path fill="#6A6867" d="M757 4h13l-8 2-4 2h-1l1-3-1 1V5h3-1V4h-2Zm-17 10c0-2 2-4 4-5-2 3-4 6-3 9v1c-2-1-4 0-6 1h1l-5 2c1-2 3-3 5-3-1-2 0-4 1-6v6-2l1 1v-1l1-3h1Zm40 14 2 3 2 3-3-2c1 2 4 3 4 5l-2-1c1 1 3 2 3 4l-3-3v1l-1-2-1-2h1l-3-5h1v-1Zm-48 15 1-8v5c1 3-1 6-2 9v-4 1l2-3h-1Zm9-1h2l3 1c2 0 3 2 5 1l1 2v-2l1 4-1-1h-1l-3-1c-2-2-4-2-6-2l-2 1v-1l-3 2h-1l4-4v1l1-1Zm34 2 4 1h1l2 4-1-2c-3 0-5-3-8-2l2 1h-3l-2 1 1-1-1-1c2-1 4-2 6 0l-1-1Zm-55 39c4 0 6-3 9-3l3 1h3l-3 2c-2-1-3-2-5-1-2 2-3 3-6 3l-4-1h-8l-7 2-8 6 3-4c2-3 6-5 9-6h6l8 1Zm63-1 4 2 2 1c-2 1-3-1-5-2l-1-1Zm-57 3c1-1 3 0 3 1l1 8 4 15c0 4 3 8 4 11l-4-2c-4-9-5-18-7-28v1l-3 1v-1l2-6Zm9 7c0-2 0-5 3-6l-1 3 1 12c3 6 5 12 9 17l6 7 2 3 16-15c4-5 8-10 9-16l2-8 1-1c2 4 0 8 0 12-2 5-5 10-9 14-5 6-11 12-18 16l-1-2c-1 1-1 3 1 3l-3-1-6-5-5-8c-5-8-8-16-7-25Zm51-1c1-1 4-2 4 0 3 6 1 12-2 17l-5 10-5 12-1 1c-1-5 1-10 4-15l4-8c3-3 4-7 4-11l-1-5-2 8h-1 1v1l-2-1 2-9Zm22 2 5-2h2l7 4 7 5 1 2-5-2-9-6c-1-1-3-2-5-1l-1-1-2 1Zm-10 0c3 0 7 1 8 4l-7-2v5c-1 1-1-1-1-2-1-2-2-4 0-5Z"/>
  <path fill="#060503" d="M772 4h5c5 1 9 5 12 9l-1-1 3 5 1 4v1h-1c-3-1-3-4-5-5l-1 2-3 1c0 2-1 3-2 3l4 4v-1l3 2-2-1h-1l5 4 3 2a170 170 0 0 1 0 1l-2 1-2-2-5-2h1l-3-3-7-6-4-3c-2-1-4-2-6-1l-4 2h-1l-3-1 1-3v-1l2-2h1l7-2-1 2 3-2h6a21 21 0 0 0-21 3h-1v1c-2-1-2 3-4 2l-1 1c0-4 3-5 5-8l5-2 4-2h7c2 0 5 2 6 0l-3-1V4Zm-5 48c2-2 5-4 8-3l4 2-2-1 1 2-1 1v-1h-1l-3-1v1l-4-1-1 2-1 1-1-1 1-1Z"/>
  <path fill="#FFCEBC" d="M764 18c2-1 4 0 6 1l4 3 7 6 1 3-2-3v1h-1l3 5h-1l1 2 1 2 4 5v5l-1-2-4-1c-3-3-8-4-11-5s-1-4 1-4c-1-2 1-5 3-5l-2-4-4-5-5-4Zm-1 29h2c-3 1-3 4-3 7-1 2 0 5 1 8l1 2h-1c-1 1-3 2-3 4h-1c-1 0-2 0-3-2 0-2 4-2 3-4l1-11 3-4Zm-29 3c1-1 2 1 3 2l1-1-1 1h1l-1 1 4 1h2v1h-5c0 3 2 4 3 7l3 6 6-6c2 2 3-1 3-3l2-3c1 3 0 5-1 8-1 1-3-1-4 1v3l-2-3-3 7c-1 3 1 5 1 7l-5-4-2-1-3-4-2-8-1-7 1-5Z"/>
  <path fill="#FFCEBC" d="M782 54c1-2 2-3 4-3l-1 2-3 8c0 4-1 7-3 10l-2 3-1 2h-1l1-4c-1-3-4-4-6-5l3 3c1 2 2 4 1 6v-3h-6 1-12l1-1h-7l9 1c-1-2-2-3 0-4l5-1h3l1-3-1-1 2-3c2 1 4 4 7 2l5-9Zm-14-1 1-2 1 2-3 1 1-1Z"/>
  <path fill="#FFCEBC" d="m749 74 14 1h6l-5 2-1-1-2 1h-2c-1-2-3-1-3 0-1-1-2-2-3-1l-1-1h-1l-2 1v-2Zm17 9c2 0 3 2 3 3v3-2l-6 3-4-3c-3 0-7-1-8-4l4 2c4 0 8 0 11-2Z"/>
  <path fill="#FFE9BC" d="M749 20c2 1 3-1 5-1l2 2v-2l1 1h3-1c3 1 3 3 3 6 3 2 1 5 2 7 0 2-1 4-3 4h-6c-3 0-6-1-6-5l-8-3c-2 2-3 5-3 7 2 0 4-1 5 1 2 1 0 3 0 5h-2l-1 1v-1l-4 4h1c-1 1-3 4-6 3 1-3 3-6 2-9v-5h1v-5l5-7c0-1 0-3 2-3v-1l2 1c2 1 4 0 5-1l1 1Zm-1 26 3 1c2 1 4 3 3 5l-6-3v1h-1c1-1 0-2-1-3l2-1Zm22 1 2-1v1h6c-2 0-3 1-2 2h-1c-3-1-6 1-8 3l-1-4 4-1Zm-41 7c1-1 2-2 3 0l1 9 1-1 2 8 3 4c1 3 4 5 6 7l6 6c2 2 4 5 7 6 2 0 4 1 4 3l-9-1-10-7 4 4 5 4c3 2 7 2 11 1l-1 3 2 4-1 1-2 1-6-1c0 2 2 3 3 3 0 3 1 6 3 7l-2 1v1c-5-1-10-4-13-9l-5-7-2-10c-1-2 0-4 2-5l-8-11-1-8h-1l-1-6c0-2-2-5-1-7Z"/>
  <path fill="#1A130E" d="m781 28 3 3h-1l5 2 2 2 2-1v2h1l-4 13v3c-2 4-2 8-2 13h-1l-1-1 2-14v-7l-4-5v-1l3 3c0-2-2-3-3-4l2 1c0-2-3-3-4-5l3 2-2-3-1-3Zm-37 22h1a6 6 0 0 1 3 0l2 1h-1c-1 2-3 2-3 0l-2-1Z"/>
  <path fill="#1676D0" d="m793 29 1-1 1 5v7h-1v-1l-4 12-1 1v-3l4-13a46 46 0 0 0 0-7Zm-33 39a8 8 0 0 1 6-1l-1 1-5 1v-1Zm26 2v-1 3c0 3-2 6-4 9l-3 3-1 2-8 5 2-2 3-3c4-5 8-9 10-15v-2l1 1Zm-12 36 3-4c0 4-3 6-5 9-3 3-8 5-13 6v-1l2-1c5-2 9-6 13-9Z"/>
  <path fill="#E0AC5D" d="M765 47v1h1l1 4-1 1 1 1v1l1 3 2 3-2 3 1 1-1 3c0-2 2-4-1-4v1h-2c2-2 0-4 0-5h-2v2c-1-3-2-6-1-8 0-3 0-6 3-7Zm22 1v2l-1 3v-1l-1 1 1-2 1-3Zm-11 4h1l-4 1 3-1Zm2 0 2 1 1 1-4-1 1-1Zm-36 0 3 1-3-1Zm8 0 1 1h-1v-1Zm32 9 3-8c0 2-2 4-1 6l1 5v7-4c-3-2-4 2-6 4 2-3 3-6 3-10Zm-12 6c2 1 5 2 6 5l-1 4h-1c1-2 0-4-1-6l-3-3Zm-18 1h4v1l-4-1Zm28 17h1l1 4-2 8c-1 2-1 4-3 5l-3 4c-4 3-8 7-13 9-2-1-3-4-3-7l3-2 2-1-1 1c3-1 6 0 8-2l6-3c3-3 4-7 5-11l-1-4v-1Zm-37 3 10 7-1 1-5-4-4-4Z"/>
  <path fill="#F9CF7C" d="M776 49c-1-1 0-2 2-2l3 3c1 1-1 2-2 1l-4-2h1Zm-38 2c2-1 4-3 5-1l-4 2h-2l1-1Zm10-2 6 3c2 0 2 3 1 4l-2 3-4 1 1-2c-3 1-6-1-9-1l5-1c3 0 6 1 7-2v-1l-3-2-2-1v-1Zm19 6c2 1 4 2 6 1h4c-3 2-6 3-9 1v1l-1-3Zm-7 13c0-2 2-3 3-4l2 3c-2-1-4 0-5 1Zm17 10c4 0 6-4 8-7-2 6-6 10-10 15l1-7v-3l1-2c-2 1 1 2 0 4Zm-8 8c1-2 2-5 5-6l-2 9-2 2-4 4h-2l5-6v-3Z"/>
  <path fill="#9A500D" d="M743 50h2-1l2 1-1 1v-1c-3-1-4 1-6 1l4-2Zm46 2 1-1c1 3-1 5-2 8l-1 6c0-5 0-9 2-13Zm-26 8h2c0 1 2 3 0 5l-1-1-1-2v-2Zm4 4c3 0 1 2 1 4h-3l1-1 1-2v-1Zm-7 5 5-1-5 1Zm18 17 1-2 1 1v1l1 4c-1 4-2 8-5 11l-6 3c-2 0-2-3-1-4 2-2 5-4 6-7l-5 2c-2 2-4 2-6 2l7-5c3-1 7-3 8-6h-1Z"/>
  <path fill="#DC9C39" d="m787 50-2 14-1-5c-1-2 1-4 1-6l1-1v1l1-3Zm-8 21c2-2 3-6 6-4v4c-2 3-4 7-8 7 1-2-2-3 0-4l2-3Zm-28 1h7l-1 1h12l3 1v1-1l-4 1h-5l-14-1-3-1v1-1l5-1Zm19 23 5-2c-1 3-4 5-6 7-1 1-1 4 1 4-2 2-5 1-8 2l1-1 1-1-2-4 1-3c-4 1-8 1-11-1l1-1 9 1 2-1h2l-2 1v1c2 0 4 0 6-2Z"/>
  <path fill="#FF919A" d="M746 75c1 0 2 2 3 1 5 4 12 5 17 2l3-1h1l2-2c-1 3-3 5-5 6-3 3-8 3-12 2-2 0-4-1-5-3l-4-5Zm8 5c0 2 2 2 3 2v-1l-3-1Zm5 2 5-1c-1 0-4-1-5 1Z"/>
</svg>
